# Tiled2Unity generated file. Do not modify by hand.
# Wavefront file for 'Temple_mesh_0544.obj'

# Vertices (Count = 60)
v -1433.6 -409.6 0
v -1536 -409.6 0
v -1536 -307.2 0
v -1433.6 -307.2 0
v -1536 -409.6 0
v -1638.4 -409.6 0
v -1638.4 -307.2 0
v -1536 -307.2 0
v -1433.6 -512 0
v -1536 -512 0
v -1536 -409.6 0
v -1433.6 -409.6 0
v -1536 -512 0
v -1638.4 -512 0
v -1638.4 -409.6 0
v -1536 -409.6 0
v -1433.6 -614.4 0
v -1536 -614.4 0
v -1536 -512 0
v -1433.6 -512 0
v -1536 -614.4 0
v -1638.4 -614.4 0
v -1638.4 -512 0
v -1536 -512 0
v -307.2 -921.6 0
v -409.6 -921.6 0
v -409.6 -819.2 0
v -307.2 -819.2 0
v -409.6 -921.6 0
v -512 -921.6 0
v -512 -819.2 0
v -409.6 -819.2 0
v -512 -921.6 0
v -614.4 -921.6 0
v -614.4 -819.2 0
v -512 -819.2 0
v -307.2 -1024 0
v -409.6 -1024 0
v -409.6 -921.6 0
v -307.2 -921.6 0
v -409.6 -1024 0
v -512 -1024 0
v -512 -921.6 0
v -409.6 -921.6 0
v -512 -1024 0
v -614.4 -1024 0
v -614.4 -921.6 0
v -512 -921.6 0
v -307.2 -1126.4 0
v -409.6 -1126.4 0
v -409.6 -1024 0
v -307.2 -1024 0
v -409.6 -1126.4 0
v -512 -1126.4 0
v -512 -1024 0
v -409.6 -1024 0
v -512 -1126.4 0
v -614.4 -1126.4 0
v -614.4 -1024 0
v -512 -1024 0

# Texture cooridinates (Count = 25)
vt 0.75 0.59375
vt 0.78125 0.59375
vt 0.78125 0.625
vt 0.75 0.625
vt 0.8125 0.59375
vt 0.8125 0.625
vt 0.75 0.5625
vt 0.78125 0.5625
vt 0.8125 0.5625
vt 0.75 0.53125
vt 0.78125 0.53125
vt 0.8125 0.53125
vt 0.75 0.5
vt 0.78125 0.5
vt 0.8125 0.5
vt 0.84375 0.5
vt 0.84375 0.53125
vt 0.75 0.46875
vt 0.78125 0.46875
vt 0.8125 0.46875
vt 0.84375 0.46875
vt 0.75 0.4375
vt 0.78125 0.4375
vt 0.8125 0.4375
vt 0.84375 0.4375

# Normal
vn 0 0 -1

# Mesh description
g Temple_mesh_0544

# Faces
f 1/1/1 2/2/1 3/3/1 4/4/1
f 5/2/1 6/5/1 7/6/1 8/3/1
f 9/7/1 10/8/1 11/2/1 12/1/1
f 13/8/1 14/9/1 15/5/1 16/2/1
f 17/10/1 18/11/1 19/8/1 20/7/1
f 21/11/1 22/12/1 23/9/1 24/8/1
f 25/13/1 26/14/1 27/11/1 28/10/1
f 29/14/1 30/15/1 31/12/1 32/11/1
f 33/15/1 34/16/1 35/17/1 36/12/1
f 37/18/1 38/19/1 39/14/1 40/13/1
f 41/19/1 42/20/1 43/15/1 44/14/1
f 45/20/1 46/21/1 47/16/1 48/15/1
f 49/22/1 50/23/1 51/19/1 52/18/1
f 53/23/1 54/24/1 55/20/1 56/19/1
f 57/24/1 58/25/1 59/21/1 60/20/1

