# Tiled2Unity generated file. Do not modify by hand.
# Wavefront file for 'Temple_mesh_0623.obj'

# Vertices (Count = 8)
v -819.2 -307.2 0
v -921.6 -307.2 0
v -921.6 -204.8 0
v -819.2 -204.8 0
v -1433.6 -716.8 0
v -1536 -716.8 0
v -1536 -614.4 0
v -1433.6 -614.4 0

# Texture cooridinates (Count = 8)
vt 0.65625 0.3125
vt 0.6875 0.3125
vt 0.6875 0.34375
vt 0.65625 0.34375
vt 0.75 0.3125
vt 0.78125 0.3125
vt 0.78125 0.34375
vt 0.75 0.34375

# Normal
vn 0 0 -1

# Mesh description
g Temple_mesh_0623

# Faces
f 1/1/1 2/2/1 3/3/1 4/4/1
f 5/5/1 6/6/1 7/7/1 8/8/1

