# Tiled2Unity generated file. Do not modify by hand.
# Wavefront file for 'Temple_mesh_0494.obj'

# Vertices (Count = 56)
v -102.4 -614.4 0
v -204.8 -614.4 0
v -204.8 -512 0
v -102.4 -512 0
v -204.8 -614.4 0
v -307.2 -614.4 0
v -307.2 -512 0
v -204.8 -512 0
v -307.2 -614.4 0
v -409.6 -614.4 0
v -409.6 -512 0
v -307.2 -512 0
v -102.4 -716.8 0
v -204.8 -716.8 0
v -204.8 -614.4 0
v -102.4 -614.4 0
v -204.8 -716.8 0
v -307.2 -716.8 0
v -307.2 -614.4 0
v -204.8 -614.4 0
v -307.2 -716.8 0
v -409.6 -716.8 0
v -409.6 -614.4 0
v -307.2 -614.4 0
v -102.4 -819.2 0
v -204.8 -819.2 0
v -204.8 -716.8 0
v -102.4 -716.8 0
v -204.8 -819.2 0
v -307.2 -819.2 0
v -307.2 -716.8 0
v -204.8 -716.8 0
v -307.2 -819.2 0
v -409.6 -819.2 0
v -409.6 -716.8 0
v -307.2 -716.8 0
v -102.4 -921.6 0
v -204.8 -921.6 0
v -204.8 -819.2 0
v -102.4 -819.2 0
v -204.8 -921.6 0
v -307.2 -921.6 0
v -307.2 -819.2 0
v -204.8 -819.2 0
v -307.2 -921.6 0
v -409.6 -921.6 0
v -409.6 -819.2 0
v -307.2 -819.2 0
v 0 -1638.4 0
v -102.4 -1638.4 0
v -102.4 -1536 0
v 0 -1536 0
v -102.4 -1638.4 0
v -204.8 -1638.4 0
v -204.8 -1536 0
v -102.4 -1536 0

# Texture cooridinates (Count = 20)
vt 0.84375 0.5
vt 0.875 0.5
vt 0.875 0.53125
vt 0.84375 0.53125
vt 0.90625 0.5
vt 0.90625 0.53125
vt 0.9375 0.5
vt 0.9375 0.53125
vt 0.84375 0.46875
vt 0.875 0.46875
vt 0.90625 0.46875
vt 0.9375 0.46875
vt 0.84375 0.4375
vt 0.875 0.4375
vt 0.90625 0.4375
vt 0.9375 0.4375
vt 0.84375 0.40625
vt 0.875 0.40625
vt 0.90625 0.40625
vt 0.9375 0.40625

# Normal
vn 0 0 -1

# Mesh description
g Temple_mesh_0494

# Faces
f 1/1/1 2/2/1 3/3/1 4/4/1
f 5/2/1 6/5/1 7/6/1 8/3/1
f 9/5/1 10/7/1 11/8/1 12/6/1
f 13/9/1 14/10/1 15/2/1 16/1/1
f 17/10/1 18/11/1 19/5/1 20/2/1
f 21/11/1 22/12/1 23/7/1 24/5/1
f 25/13/1 26/14/1 27/10/1 28/9/1
f 29/14/1 30/15/1 31/11/1 32/10/1
f 33/15/1 34/16/1 35/12/1 36/11/1
f 37/17/1 38/18/1 39/14/1 40/13/1
f 41/18/1 42/19/1 43/15/1 44/14/1
f 45/19/1 46/20/1 47/16/1 48/15/1
f 49/2/1 50/5/1 51/6/1 52/3/1
f 53/5/1 54/7/1 55/8/1 56/6/1

