# Tiled2Unity generated file. Do not modify by hand.
# Wavefront file for 'Temple_mesh_0366.obj'

# Vertices (Count = 48)
v -614.4 -204.8 0
v -716.8 -204.8 0
v -716.8 -102.4 0
v -614.4 -102.4 0
v -921.6 -204.8 0
v -1024 -204.8 0
v -1024 -102.4 0
v -921.6 -102.4 0
v -614.4 -307.2 0
v -716.8 -307.2 0
v -716.8 -204.8 0
v -614.4 -204.8 0
v -716.8 -307.2 0
v -819.2 -307.2 0
v -819.2 -204.8 0
v -716.8 -204.8 0
v -819.2 -307.2 0
v -921.6 -307.2 0
v -921.6 -204.8 0
v -819.2 -204.8 0
v -921.6 -307.2 0
v -1024 -307.2 0
v -1024 -204.8 0
v -921.6 -204.8 0
v -1024 -307.2 0
v -1126.4 -307.2 0
v -1126.4 -204.8 0
v -1024 -204.8 0
v -1228.8 -307.2 0
v -1331.2 -307.2 0
v -1331.2 -204.8 0
v -1228.8 -204.8 0
v -1331.2 -307.2 0
v -1433.6 -307.2 0
v -1433.6 -204.8 0
v -1331.2 -204.8 0
v -1536 -307.2 0
v -1638.4 -307.2 0
v -1638.4 -204.8 0
v -1536 -204.8 0
v -204.8 -921.6 0
v -307.2 -921.6 0
v -307.2 -819.2 0
v -204.8 -819.2 0
v -204.8 -1024 0
v -307.2 -1024 0
v -307.2 -921.6 0
v -204.8 -921.6 0

# Texture cooridinates (Count = 21)
vt 0.3125 0.15625
vt 0.34375 0.15625
vt 0.34375 0.1875
vt 0.3125 0.1875
vt 0.34375 0.21875
vt 0.375 0.21875
vt 0.375 0.25
vt 0.34375 0.25
vt 0.34375 0
vt 0.375 0
vt 0.375 0.03125
vt 0.34375 0.03125
vt 0.3125 0.21875
vt 0.40625 0.21875
vt 0.4375 0.21875
vt 0.4375 0.25
vt 0.40625 0.25
vt 0.4375 0
vt 0.46875 0
vt 0.46875 0.03125
vt 0.4375 0.03125

# Normal
vn 0 0 -1

# Mesh description
g Temple_mesh_0366

# Faces
f 1/1/1 2/2/1 3/3/1 4/4/1
f 5/5/1 6/6/1 7/7/1 8/8/1
f 9/1/1 10/2/1 11/3/1 12/4/1
f 13/9/1 14/10/1 15/11/1 16/12/1
f 17/4/1 18/3/1 19/5/1 20/13/1
f 21/5/1 22/6/1 23/7/1 24/8/1
f 25/4/1 26/3/1 27/5/1 28/13/1
f 29/14/1 30/15/1 31/16/1 32/17/1
f 33/9/1 34/10/1 35/11/1 36/12/1
f 37/4/1 38/3/1 39/5/1 40/13/1
f 41/18/1 42/19/1 43/20/1 44/21/1
f 45/4/1 46/3/1 47/5/1 48/13/1

