# Tiled2Unity generated file. Do not modify by hand.
# Wavefront file for 'Temple_mesh_0668.obj'

# Vertices (Count = 44)
v 0 -102.4 0
v -102.4 -102.4 0
v -102.4 0 0
v 0 0 0
v -102.4 -102.4 0
v -204.8 -102.4 0
v -204.8 0 0
v -102.4 0 0
v -204.8 -102.4 0
v -307.2 -102.4 0
v -307.2 0 0
v -204.8 0 0
v -307.2 -102.4 0
v -409.6 -102.4 0
v -409.6 0 0
v -307.2 0 0
v -409.6 -102.4 0
v -512 -102.4 0
v -512 0 0
v -409.6 0 0
v -512 -102.4 0
v -614.4 -102.4 0
v -614.4 0 0
v -512 0 0
v -614.4 -102.4 0
v -716.8 -102.4 0
v -716.8 0 0
v -614.4 0 0
v -716.8 -102.4 0
v -819.2 -102.4 0
v -819.2 0 0
v -716.8 0 0
v -819.2 -102.4 0
v -921.6 -102.4 0
v -921.6 0 0
v -819.2 0 0
v -921.6 -102.4 0
v -1024 -102.4 0
v -1024 0 0
v -921.6 0 0
v -1024 -102.4 0
v -1126.4 -102.4 0
v -1126.4 0 0
v -1024 0 0

# Texture cooridinates (Count = 16)
vt 0.875 0.53125
vt 0.90625 0.53125
vt 0.90625 0.5625
vt 0.875 0.5625
vt 0.9375 0.53125
vt 0.9375 0.5625
vt 0.75 0.4375
vt 0.78125 0.4375
vt 0.78125 0.46875
vt 0.75 0.46875
vt 0.8125 0.4375
vt 0.8125 0.46875
vt 0.84375 0.4375
vt 0.84375 0.46875
vt 0.84375 0.53125
vt 0.84375 0.5625

# Normal
vn 0 0 -1

# Mesh description
g Temple_mesh_0668

# Faces
f 1/1/1 2/2/1 3/3/1 4/4/1
f 5/2/1 6/5/1 7/6/1 8/3/1
f 9/7/1 10/8/1 11/9/1 12/10/1
f 13/8/1 14/11/1 15/12/1 16/9/1
f 17/11/1 18/13/1 19/14/1 20/12/1
f 21/7/1 22/8/1 23/9/1 24/10/1
f 25/8/1 26/11/1 27/12/1 28/9/1
f 29/11/1 30/13/1 31/14/1 32/12/1
f 33/15/1 34/1/1 35/4/1 36/16/1
f 37/1/1 38/2/1 39/3/1 40/4/1
f 41/2/1 42/5/1 43/6/1 44/3/1

