# Tiled2Unity generated file. Do not modify by hand.
# Wavefront file for 'Temple_mesh_0529.obj'

# Vertices (Count = 12)
v -1536 -409.6 0
v -1638.4 -409.6 0
v -1638.4 -307.2 0
v -1536 -307.2 0
v -1536 -512 0
v -1638.4 -512 0
v -1638.4 -409.6 0
v -1536 -409.6 0
v -1536 -614.4 0
v -1638.4 -614.4 0
v -1638.4 -512 0
v -1536 -512 0

# Texture cooridinates (Count = 8)
vt 0.75 0.59375
vt 0.78125 0.59375
vt 0.78125 0.625
vt 0.75 0.625
vt 0.75 0.5625
vt 0.78125 0.5625
vt 0.75 0.53125
vt 0.78125 0.53125

# Normal
vn 0 0 -1

# Mesh description
g Temple_mesh_0529

# Faces
f 1/1/1 2/2/1 3/3/1 4/4/1
f 5/5/1 6/6/1 7/2/1 8/1/1
f 9/7/1 10/8/1 11/6/1 12/5/1

