# Tiled2Unity generated file. Do not modify by hand.
# Wavefront file for 'Temple_mesh_0022.obj'

# Vertices (Count = 48)
v -409.6 -1536 0
v -512 -1536 0
v -512 -1433.6 0
v -409.6 -1433.6 0
v -512 -1536 0
v -614.4 -1536 0
v -614.4 -1433.6 0
v -512 -1433.6 0
v -614.4 -1536 0
v -716.8 -1536 0
v -716.8 -1433.6 0
v -614.4 -1433.6 0
v -716.8 -1536 0
v -819.2 -1536 0
v -819.2 -1433.6 0
v -716.8 -1433.6 0
v -819.2 -1536 0
v -921.6 -1536 0
v -921.6 -1433.6 0
v -819.2 -1433.6 0
v -921.6 -1536 0
v -1024 -1536 0
v -1024 -1433.6 0
v -921.6 -1433.6 0
v -1024 -1536 0
v -1126.4 -1536 0
v -1126.4 -1433.6 0
v -1024 -1433.6 0
v -1126.4 -1536 0
v -1228.8 -1536 0
v -1228.8 -1433.6 0
v -1126.4 -1433.6 0
v -1228.8 -1536 0
v -1331.2 -1536 0
v -1331.2 -1433.6 0
v -1228.8 -1433.6 0
v -1331.2 -1536 0
v -1433.6 -1536 0
v -1433.6 -1433.6 0
v -1331.2 -1433.6 0
v -1433.6 -1536 0
v -1536 -1536 0
v -1536 -1433.6 0
v -1433.6 -1433.6 0
v -1536 -1536 0
v -1638.4 -1536 0
v -1638.4 -1433.6 0
v -1536 -1433.6 0

# Texture cooridinates (Count = 6)
vt 0.625 0.1875
vt 0.65625 0.1875
vt 0.65625 0.15625
vt 0.625 0.15625
vt 0.6875 0.1875
vt 0.6875 0.15625

# Normal
vn 0 0 -1

# Mesh description
g Temple_mesh_0022

# Faces
f 1/1/1 2/2/1 3/3/1 4/4/1
f 5/5/1 6/2/1 7/3/1 8/6/1
f 9/5/1 10/2/1 11/3/1 12/6/1
f 13/5/1 14/2/1 15/3/1 16/6/1
f 17/5/1 18/2/1 19/3/1 20/6/1
f 21/5/1 22/2/1 23/3/1 24/6/1
f 25/5/1 26/2/1 27/3/1 28/6/1
f 29/5/1 30/2/1 31/3/1 32/6/1
f 33/5/1 34/2/1 35/3/1 36/6/1
f 37/5/1 38/2/1 39/3/1 40/6/1
f 41/5/1 42/2/1 43/3/1 44/6/1
f 45/5/1 46/2/1 47/3/1 48/6/1

