# Tiled2Unity generated file. Do not modify by hand.
# Wavefront file for 'Temple_mesh_0660.obj'

# Vertices (Count = 184)
v 0 -921.6 0
v -102.4 -921.6 0
v -102.4 -819.2 0
v 0 -819.2 0
v -307.2 -921.6 0
v -409.6 -921.6 0
v -409.6 -819.2 0
v -307.2 -819.2 0
v -409.6 -921.6 0
v -512 -921.6 0
v -512 -819.2 0
v -409.6 -819.2 0
v -512 -921.6 0
v -614.4 -921.6 0
v -614.4 -819.2 0
v -512 -819.2 0
v -614.4 -921.6 0
v -716.8 -921.6 0
v -716.8 -819.2 0
v -614.4 -819.2 0
v -716.8 -921.6 0
v -819.2 -921.6 0
v -819.2 -819.2 0
v -716.8 -819.2 0
v -819.2 -921.6 0
v -921.6 -921.6 0
v -921.6 -819.2 0
v -819.2 -819.2 0
v -921.6 -921.6 0
v -1024 -921.6 0
v -1024 -819.2 0
v -921.6 -819.2 0
v -1024 -921.6 0
v -1126.4 -921.6 0
v -1126.4 -819.2 0
v -1024 -819.2 0
v -1126.4 -921.6 0
v -1228.8 -921.6 0
v -1228.8 -819.2 0
v -1126.4 -819.2 0
v 0 -1024 0
v -102.4 -1024 0
v -102.4 -921.6 0
v 0 -921.6 0
v -102.4 -1024 0
v -204.8 -1024 0
v -204.8 -921.6 0
v -102.4 -921.6 0
v -204.8 -1024 0
v -307.2 -1024 0
v -307.2 -921.6 0
v -204.8 -921.6 0
v -307.2 -1024 0
v -409.6 -1024 0
v -409.6 -921.6 0
v -307.2 -921.6 0
v -409.6 -1024 0
v -512 -1024 0
v -512 -921.6 0
v -409.6 -921.6 0
v -512 -1024 0
v -614.4 -1024 0
v -614.4 -921.6 0
v -512 -921.6 0
v -614.4 -1024 0
v -716.8 -1024 0
v -716.8 -921.6 0
v -614.4 -921.6 0
v -716.8 -1024 0
v -819.2 -1024 0
v -819.2 -921.6 0
v -716.8 -921.6 0
v -819.2 -1024 0
v -921.6 -1024 0
v -921.6 -921.6 0
v -819.2 -921.6 0
v -921.6 -1024 0
v -1024 -1024 0
v -1024 -921.6 0
v -921.6 -921.6 0
v -1024 -1024 0
v -1126.4 -1024 0
v -1126.4 -921.6 0
v -1024 -921.6 0
v -1126.4 -1024 0
v -1228.8 -1024 0
v -1228.8 -921.6 0
v -1126.4 -921.6 0
v 0 -1126.4 0
v -102.4 -1126.4 0
v -102.4 -1024 0
v 0 -1024 0
v -102.4 -1126.4 0
v -204.8 -1126.4 0
v -204.8 -1024 0
v -102.4 -1024 0
v -204.8 -1126.4 0
v -307.2 -1126.4 0
v -307.2 -1024 0
v -204.8 -1024 0
v -307.2 -1126.4 0
v -409.6 -1126.4 0
v -409.6 -1024 0
v -307.2 -1024 0
v -409.6 -1126.4 0
v -512 -1126.4 0
v -512 -1024 0
v -409.6 -1024 0
v -512 -1126.4 0
v -614.4 -1126.4 0
v -614.4 -1024 0
v -512 -1024 0
v -614.4 -1126.4 0
v -716.8 -1126.4 0
v -716.8 -1024 0
v -614.4 -1024 0
v -716.8 -1126.4 0
v -819.2 -1126.4 0
v -819.2 -1024 0
v -716.8 -1024 0
v -819.2 -1126.4 0
v -921.6 -1126.4 0
v -921.6 -1024 0
v -819.2 -1024 0
v -921.6 -1126.4 0
v -1024 -1126.4 0
v -1024 -1024 0
v -921.6 -1024 0
v -1024 -1126.4 0
v -1126.4 -1126.4 0
v -1126.4 -1024 0
v -1024 -1024 0
v -1126.4 -1126.4 0
v -1228.8 -1126.4 0
v -1228.8 -1024 0
v -1126.4 -1024 0
v 0 -1228.8 0
v -102.4 -1228.8 0
v -102.4 -1126.4 0
v 0 -1126.4 0
v -102.4 -1228.8 0
v -204.8 -1228.8 0
v -204.8 -1126.4 0
v -102.4 -1126.4 0
v -204.8 -1228.8 0
v -307.2 -1228.8 0
v -307.2 -1126.4 0
v -204.8 -1126.4 0
v -307.2 -1228.8 0
v -409.6 -1228.8 0
v -409.6 -1126.4 0
v -307.2 -1126.4 0
v -409.6 -1228.8 0
v -512 -1228.8 0
v -512 -1126.4 0
v -409.6 -1126.4 0
v -512 -1228.8 0
v -614.4 -1228.8 0
v -614.4 -1126.4 0
v -512 -1126.4 0
v -614.4 -1228.8 0
v -716.8 -1228.8 0
v -716.8 -1126.4 0
v -614.4 -1126.4 0
v -716.8 -1228.8 0
v -819.2 -1228.8 0
v -819.2 -1126.4 0
v -716.8 -1126.4 0
v -819.2 -1228.8 0
v -921.6 -1228.8 0
v -921.6 -1126.4 0
v -819.2 -1126.4 0
v -921.6 -1228.8 0
v -1024 -1228.8 0
v -1024 -1126.4 0
v -921.6 -1126.4 0
v -1024 -1228.8 0
v -1126.4 -1228.8 0
v -1126.4 -1126.4 0
v -1024 -1126.4 0
v -1126.4 -1228.8 0
v -1228.8 -1228.8 0
v -1228.8 -1126.4 0
v -1126.4 -1126.4 0

# Texture cooridinates (Count = 32)
vt 0.84375 0.5
vt 0.875 0.5
vt 0.875 0.53125
vt 0.84375 0.53125
vt 0.90625 0.5
vt 0.90625 0.53125
vt 0.9375 0.5
vt 0.9375 0.53125
vt 0.84375 0.59375
vt 0.875 0.59375
vt 0.875 0.625
vt 0.84375 0.625
vt 0.90625 0.59375
vt 0.90625 0.625
vt 0.9375 0.59375
vt 0.9375 0.625
vt 0.84375 0.46875
vt 0.875 0.46875
vt 0.90625 0.46875
vt 0.9375 0.46875
vt 0.84375 0.5625
vt 0.875 0.5625
vt 0.90625 0.5625
vt 0.9375 0.5625
vt 0.84375 0.4375
vt 0.875 0.4375
vt 0.90625 0.4375
vt 0.9375 0.4375
vt 0.84375 0.40625
vt 0.875 0.40625
vt 0.90625 0.40625
vt 0.9375 0.40625

# Normal
vn 0 0 -1

# Mesh description
g Temple_mesh_0660

# Faces
f 1/1/1 2/2/1 3/3/1 4/4/1
f 5/1/1 6/2/1 7/3/1 8/4/1
f 9/2/1 10/5/1 11/6/1 12/3/1
f 13/5/1 14/7/1 15/8/1 16/6/1
f 17/1/1 18/2/1 19/3/1 20/4/1
f 21/2/1 22/5/1 23/6/1 24/3/1
f 25/5/1 26/7/1 27/8/1 28/6/1
f 29/1/1 30/2/1 31/3/1 32/4/1
f 33/2/1 34/5/1 35/6/1 36/3/1
f 37/5/1 38/7/1 39/8/1 40/6/1
f 41/9/1 42/10/1 43/11/1 44/12/1
f 45/10/1 46/13/1 47/14/1 48/11/1
f 49/13/1 50/15/1 51/16/1 52/14/1
f 53/17/1 54/18/1 55/2/1 56/1/1
f 57/18/1 58/19/1 59/5/1 60/2/1
f 61/19/1 62/20/1 63/7/1 64/5/1
f 65/17/1 66/18/1 67/2/1 68/1/1
f 69/18/1 70/19/1 71/5/1 72/2/1
f 73/19/1 74/20/1 75/7/1 76/5/1
f 77/17/1 78/18/1 79/2/1 80/1/1
f 81/18/1 82/19/1 83/5/1 84/2/1
f 85/19/1 86/20/1 87/7/1 88/5/1
f 89/21/1 90/22/1 91/10/1 92/9/1
f 93/22/1 94/23/1 95/13/1 96/10/1
f 97/23/1 98/24/1 99/15/1 100/13/1
f 101/25/1 102/26/1 103/18/1 104/17/1
f 105/26/1 106/27/1 107/19/1 108/18/1
f 109/27/1 110/28/1 111/20/1 112/19/1
f 113/25/1 114/26/1 115/18/1 116/17/1
f 117/26/1 118/27/1 119/19/1 120/18/1
f 121/27/1 122/28/1 123/20/1 124/19/1
f 125/25/1 126/26/1 127/18/1 128/17/1
f 129/26/1 130/27/1 131/19/1 132/18/1
f 133/27/1 134/28/1 135/20/1 136/19/1
f 137/4/1 138/3/1 139/22/1 140/21/1
f 141/3/1 142/6/1 143/23/1 144/22/1
f 145/6/1 146/8/1 147/24/1 148/23/1
f 149/29/1 150/30/1 151/26/1 152/25/1
f 153/30/1 154/31/1 155/27/1 156/26/1
f 157/31/1 158/32/1 159/28/1 160/27/1
f 161/29/1 162/30/1 163/26/1 164/25/1
f 165/30/1 166/31/1 167/27/1 168/26/1
f 169/31/1 170/32/1 171/28/1 172/27/1
f 173/29/1 174/30/1 175/26/1 176/25/1
f 177/30/1 178/31/1 179/27/1 180/26/1
f 181/31/1 182/32/1 183/28/1 184/27/1

