# Tiled2Unity generated file. Do not modify by hand.
# Wavefront file for 'Temple_mesh_0390.obj'

# Vertices (Count = 8)
v -1331.2 -614.4 0
v -1433.6 -614.4 0
v -1433.6 -512 0
v -1331.2 -512 0
v 0 -819.2 0
v -102.4 -819.2 0
v -102.4 -716.8 0
v 0 -716.8 0

# Texture cooridinates (Count = 7)
vt 0.28125 0.15625
vt 0.3125 0.15625
vt 0.3125 0.1875
vt 0.28125 0.1875
vt 0.34375 0.1875
vt 0.34375 0.21875
vt 0.3125 0.21875

# Normal
vn 0 0 -1

# Mesh description
g Temple_mesh_0390

# Faces
f 1/1/1 2/2/1 3/3/1 4/4/1
f 5/3/1 6/5/1 7/6/1 8/7/1

