# Tiled2Unity generated file. Do not modify by hand.
# Wavefront file for 'Temple_mesh_0016.obj'

# Vertices (Count = 56)
v -409.6 -716.8 0
v -512 -716.8 0
v -512 -614.4 0
v -409.6 -614.4 0
v -512 -716.8 0
v -614.4 -716.8 0
v -614.4 -614.4 0
v -512 -614.4 0
v -614.4 -716.8 0
v -716.8 -716.8 0
v -716.8 -614.4 0
v -614.4 -614.4 0
v -716.8 -716.8 0
v -819.2 -716.8 0
v -819.2 -614.4 0
v -716.8 -614.4 0
v -819.2 -716.8 0
v -921.6 -716.8 0
v -921.6 -614.4 0
v -819.2 -614.4 0
v -921.6 -716.8 0
v -1024 -716.8 0
v -1024 -614.4 0
v -921.6 -614.4 0
v -1024 -716.8 0
v -1126.4 -716.8 0
v -1126.4 -614.4 0
v -1024 -614.4 0
v -1126.4 -716.8 0
v -1228.8 -716.8 0
v -1228.8 -614.4 0
v -1126.4 -614.4 0
v -1228.8 -716.8 0
v -1331.2 -716.8 0
v -1331.2 -614.4 0
v -1228.8 -614.4 0
v -1331.2 -716.8 0
v -1433.6 -716.8 0
v -1433.6 -614.4 0
v -1331.2 -614.4 0
v -1433.6 -716.8 0
v -1536 -716.8 0
v -1536 -614.4 0
v -1433.6 -614.4 0
v -1536 -716.8 0
v -1638.4 -716.8 0
v -1638.4 -614.4 0
v -1536 -614.4 0
v -614.4 -921.6 0
v -716.8 -921.6 0
v -716.8 -819.2 0
v -614.4 -819.2 0
v -1126.4 -1331.2 0
v -1228.8 -1331.2 0
v -1228.8 -1228.8 0
v -1126.4 -1228.8 0

# Texture cooridinates (Count = 10)
vt 0.625 0.15625
vt 0.65625 0.15625
vt 0.65625 0.1875
vt 0.625 0.1875
vt 0.6875 0.15625
vt 0.6875 0.1875
vt 0.875 0.28125
vt 0.90625 0.28125
vt 0.90625 0.3125
vt 0.875 0.3125

# Normal
vn 0 0 -1

# Mesh description
g Temple_mesh_0016

# Faces
f 1/1/1 2/2/1 3/3/1 4/4/1
f 5/2/1 6/5/1 7/6/1 8/3/1
f 9/2/1 10/5/1 11/6/1 12/3/1
f 13/2/1 14/5/1 15/6/1 16/3/1
f 17/2/1 18/5/1 19/6/1 20/3/1
f 21/2/1 22/5/1 23/6/1 24/3/1
f 25/2/1 26/5/1 27/6/1 28/3/1
f 29/2/1 30/5/1 31/6/1 32/3/1
f 33/2/1 34/5/1 35/6/1 36/3/1
f 37/2/1 38/5/1 39/6/1 40/3/1
f 41/2/1 42/5/1 43/6/1 44/3/1
f 45/2/1 46/5/1 47/6/1 48/3/1
f 49/7/1 50/8/1 51/9/1 52/10/1
f 53/7/1 54/8/1 55/9/1 56/10/1

