# Tiled2Unity generated file. Do not modify by hand.
# Wavefront file for 'Temple_mesh_0629.obj'

# Vertices (Count = 8)
v -409.6 -307.2 0
v -512 -307.2 0
v -512 -204.8 0
v -409.6 -204.8 0
v -1536 -716.8 0
v -1638.4 -716.8 0
v -1638.4 -614.4 0
v -1536 -614.4 0

# Texture cooridinates (Count = 8)
vt 0.8125 0.1875
vt 0.84375 0.1875
vt 0.84375 0.21875
vt 0.8125 0.21875
vt 0.90625 0.25
vt 0.9375 0.25
vt 0.9375 0.28125
vt 0.90625 0.28125

# Normal
vn 0 0 -1

# Mesh description
g Temple_mesh_0629

# Faces
f 1/1/1 2/2/1 3/3/1 4/4/1
f 5/5/1 6/6/1 7/7/1 8/8/1

