# Tiled2Unity generated file. Do not modify by hand.
# Wavefront file for 'Temple_mesh_0041.obj'

# Vertices (Count = 72)
v 0 -409.6 0
v -102.4 -409.6 0
v -102.4 -307.2 0
v 0 -307.2 0
v -102.4 -409.6 0
v -204.8 -409.6 0
v -204.8 -307.2 0
v -102.4 -307.2 0
v -204.8 -409.6 0
v -307.2 -409.6 0
v -307.2 -307.2 0
v -204.8 -307.2 0
v -307.2 -409.6 0
v -409.6 -409.6 0
v -409.6 -307.2 0
v -307.2 -307.2 0
v -307.2 -512 0
v -409.6 -512 0
v -409.6 -409.6 0
v -307.2 -409.6 0
v -307.2 -614.4 0
v -409.6 -614.4 0
v -409.6 -512 0
v -307.2 -512 0
v -307.2 -716.8 0
v -409.6 -716.8 0
v -409.6 -614.4 0
v -307.2 -614.4 0
v -307.2 -819.2 0
v -409.6 -819.2 0
v -409.6 -716.8 0
v -307.2 -716.8 0
v -307.2 -921.6 0
v -409.6 -921.6 0
v -409.6 -819.2 0
v -307.2 -819.2 0
v -409.6 -1024 0
v -512 -1024 0
v -512 -921.6 0
v -409.6 -921.6 0
v -716.8 -1024 0
v -819.2 -1024 0
v -819.2 -921.6 0
v -716.8 -921.6 0
v -819.2 -1024 0
v -921.6 -1024 0
v -921.6 -921.6 0
v -819.2 -921.6 0
v -819.2 -1126.4 0
v -921.6 -1126.4 0
v -921.6 -1024 0
v -819.2 -1024 0
v -819.2 -1228.8 0
v -921.6 -1228.8 0
v -921.6 -1126.4 0
v -819.2 -1126.4 0
v -819.2 -1331.2 0
v -921.6 -1331.2 0
v -921.6 -1228.8 0
v -819.2 -1228.8 0
v -819.2 -1433.6 0
v -921.6 -1433.6 0
v -921.6 -1331.2 0
v -819.2 -1331.2 0
v -819.2 -1536 0
v -921.6 -1536 0
v -921.6 -1433.6 0
v -819.2 -1433.6 0
v -819.2 -1638.4 0
v -921.6 -1638.4 0
v -921.6 -1536 0
v -819.2 -1536 0

# Texture cooridinates (Count = 14)
vt 0.3125 0.625
vt 0.34375 0.625
vt 0.34375 0.65625
vt 0.3125 0.65625
vt 0.375 0.625
vt 0.375 0.65625
vt 0.34375 0.59375
vt 0.375 0.59375
vt 0.71875 0.5625
vt 0.75 0.5625
vt 0.75 0.59375
vt 0.71875 0.59375
vt 0.71875 0.53125
vt 0.75 0.53125

# Normal
vn 0 0 -1

# Mesh description
g Temple_mesh_0041

# Faces
f 1/1/1 2/2/1 3/3/1 4/4/1
f 5/1/1 6/2/1 7/3/1 8/4/1
f 9/1/1 10/2/1 11/3/1 12/4/1
f 13/2/1 14/5/1 15/6/1 16/3/1
f 17/7/1 18/8/1 19/5/1 20/2/1
f 21/7/1 22/8/1 23/5/1 24/2/1
f 25/7/1 26/8/1 27/5/1 28/2/1
f 29/7/1 30/8/1 31/5/1 32/2/1
f 33/7/1 34/8/1 35/5/1 36/2/1
f 37/1/1 38/2/1 39/3/1 40/4/1
f 41/1/1 42/2/1 43/3/1 44/4/1
f 45/9/1 46/10/1 47/11/1 48/12/1
f 49/13/1 50/14/1 51/10/1 52/9/1
f 53/13/1 54/14/1 55/10/1 56/9/1
f 57/13/1 58/14/1 59/10/1 60/9/1
f 61/13/1 62/14/1 63/10/1 64/9/1
f 65/13/1 66/14/1 67/10/1 68/9/1
f 69/13/1 70/14/1 71/10/1 72/9/1

