# Tiled2Unity generated file. Do not modify by hand.
# Wavefront file for 'Temple_mesh_0581.obj'

# Vertices (Count = 12)
v -1126.4 -1638.4 0
v -1228.8 -1638.4 0
v -1228.8 -1536 0
v -1126.4 -1536 0
v -1228.8 -1638.4 0
v -1331.2 -1638.4 0
v -1331.2 -1536 0
v -1228.8 -1536 0
v -1331.2 -1638.4 0
v -1433.6 -1638.4 0
v -1433.6 -1536 0
v -1331.2 -1536 0

# Texture cooridinates (Count = 8)
vt 0.75 0.59375
vt 0.78125 0.59375
vt 0.78125 0.625
vt 0.75 0.625
vt 0.8125 0.59375
vt 0.8125 0.625
vt 0.84375 0.59375
vt 0.84375 0.625

# Normal
vn 0 0 -1

# Mesh description
g Temple_mesh_0581

# Faces
f 1/1/1 2/2/1 3/3/1 4/4/1
f 5/2/1 6/5/1 7/6/1 8/3/1
f 9/5/1 10/7/1 11/8/1 12/6/1

