# Tiled2Unity generated file. Do not modify by hand.
# Wavefront file for 'Temple_mesh_0015.obj'

# Vertices (Count = 308)
v 0 -716.8 0
v -102.4 -716.8 0
v -102.4 -614.4 0
v 0 -614.4 0
v -102.4 -716.8 0
v -204.8 -716.8 0
v -204.8 -614.4 0
v -102.4 -614.4 0
v -204.8 -716.8 0
v -307.2 -716.8 0
v -307.2 -614.4 0
v -204.8 -614.4 0
v -307.2 -716.8 0
v -409.6 -716.8 0
v -409.6 -614.4 0
v -307.2 -614.4 0
v -409.6 -716.8 0
v -512 -716.8 0
v -512 -614.4 0
v -409.6 -614.4 0
v -512 -716.8 0
v -614.4 -716.8 0
v -614.4 -614.4 0
v -512 -614.4 0
v -614.4 -716.8 0
v -716.8 -716.8 0
v -716.8 -614.4 0
v -614.4 -614.4 0
v -716.8 -716.8 0
v -819.2 -716.8 0
v -819.2 -614.4 0
v -716.8 -614.4 0
v -819.2 -716.8 0
v -921.6 -716.8 0
v -921.6 -614.4 0
v -819.2 -614.4 0
v 0 -819.2 0
v -102.4 -819.2 0
v -102.4 -716.8 0
v 0 -716.8 0
v -102.4 -819.2 0
v -204.8 -819.2 0
v -204.8 -716.8 0
v -102.4 -716.8 0
v -204.8 -819.2 0
v -307.2 -819.2 0
v -307.2 -716.8 0
v -204.8 -716.8 0
v -307.2 -819.2 0
v -409.6 -819.2 0
v -409.6 -716.8 0
v -307.2 -716.8 0
v -409.6 -819.2 0
v -512 -819.2 0
v -512 -716.8 0
v -409.6 -716.8 0
v -512 -819.2 0
v -614.4 -819.2 0
v -614.4 -716.8 0
v -512 -716.8 0
v -614.4 -819.2 0
v -716.8 -819.2 0
v -716.8 -716.8 0
v -614.4 -716.8 0
v -716.8 -819.2 0
v -819.2 -819.2 0
v -819.2 -716.8 0
v -716.8 -716.8 0
v -819.2 -819.2 0
v -921.6 -819.2 0
v -921.6 -716.8 0
v -819.2 -716.8 0
v 0 -921.6 0
v -102.4 -921.6 0
v -102.4 -819.2 0
v 0 -819.2 0
v -102.4 -921.6 0
v -204.8 -921.6 0
v -204.8 -819.2 0
v -102.4 -819.2 0
v -204.8 -921.6 0
v -307.2 -921.6 0
v -307.2 -819.2 0
v -204.8 -819.2 0
v -307.2 -921.6 0
v -409.6 -921.6 0
v -409.6 -819.2 0
v -307.2 -819.2 0
v -409.6 -921.6 0
v -512 -921.6 0
v -512 -819.2 0
v -409.6 -819.2 0
v -512 -921.6 0
v -614.4 -921.6 0
v -614.4 -819.2 0
v -512 -819.2 0
v -614.4 -921.6 0
v -716.8 -921.6 0
v -716.8 -819.2 0
v -614.4 -819.2 0
v -716.8 -921.6 0
v -819.2 -921.6 0
v -819.2 -819.2 0
v -716.8 -819.2 0
v -819.2 -921.6 0
v -921.6 -921.6 0
v -921.6 -819.2 0
v -819.2 -819.2 0
v 0 -1024 0
v -102.4 -1024 0
v -102.4 -921.6 0
v 0 -921.6 0
v -102.4 -1024 0
v -204.8 -1024 0
v -204.8 -921.6 0
v -102.4 -921.6 0
v -204.8 -1024 0
v -307.2 -1024 0
v -307.2 -921.6 0
v -204.8 -921.6 0
v -307.2 -1024 0
v -409.6 -1024 0
v -409.6 -921.6 0
v -307.2 -921.6 0
v -409.6 -1024 0
v -512 -1024 0
v -512 -921.6 0
v -409.6 -921.6 0
v -512 -1024 0
v -614.4 -1024 0
v -614.4 -921.6 0
v -512 -921.6 0
v -614.4 -1024 0
v -716.8 -1024 0
v -716.8 -921.6 0
v -614.4 -921.6 0
v -716.8 -1024 0
v -819.2 -1024 0
v -819.2 -921.6 0
v -716.8 -921.6 0
v -819.2 -1024 0
v -921.6 -1024 0
v -921.6 -921.6 0
v -819.2 -921.6 0
v 0 -1126.4 0
v -102.4 -1126.4 0
v -102.4 -1024 0
v 0 -1024 0
v -102.4 -1126.4 0
v -204.8 -1126.4 0
v -204.8 -1024 0
v -102.4 -1024 0
v -204.8 -1126.4 0
v -307.2 -1126.4 0
v -307.2 -1024 0
v -204.8 -1024 0
v -307.2 -1126.4 0
v -409.6 -1126.4 0
v -409.6 -1024 0
v -307.2 -1024 0
v -409.6 -1126.4 0
v -512 -1126.4 0
v -512 -1024 0
v -409.6 -1024 0
v -512 -1126.4 0
v -614.4 -1126.4 0
v -614.4 -1024 0
v -512 -1024 0
v -614.4 -1126.4 0
v -716.8 -1126.4 0
v -716.8 -1024 0
v -614.4 -1024 0
v -716.8 -1126.4 0
v -819.2 -1126.4 0
v -819.2 -1024 0
v -716.8 -1024 0
v 0 -1228.8 0
v -102.4 -1228.8 0
v -102.4 -1126.4 0
v 0 -1126.4 0
v -102.4 -1228.8 0
v -204.8 -1228.8 0
v -204.8 -1126.4 0
v -102.4 -1126.4 0
v -204.8 -1228.8 0
v -307.2 -1228.8 0
v -307.2 -1126.4 0
v -204.8 -1126.4 0
v -307.2 -1228.8 0
v -409.6 -1228.8 0
v -409.6 -1126.4 0
v -307.2 -1126.4 0
v -409.6 -1228.8 0
v -512 -1228.8 0
v -512 -1126.4 0
v -409.6 -1126.4 0
v -512 -1228.8 0
v -614.4 -1228.8 0
v -614.4 -1126.4 0
v -512 -1126.4 0
v -614.4 -1228.8 0
v -716.8 -1228.8 0
v -716.8 -1126.4 0
v -614.4 -1126.4 0
v -716.8 -1228.8 0
v -819.2 -1228.8 0
v -819.2 -1126.4 0
v -716.8 -1126.4 0
v 0 -1331.2 0
v -102.4 -1331.2 0
v -102.4 -1228.8 0
v 0 -1228.8 0
v -102.4 -1331.2 0
v -204.8 -1331.2 0
v -204.8 -1228.8 0
v -102.4 -1228.8 0
v -204.8 -1331.2 0
v -307.2 -1331.2 0
v -307.2 -1228.8 0
v -204.8 -1228.8 0
v -307.2 -1331.2 0
v -409.6 -1331.2 0
v -409.6 -1228.8 0
v -307.2 -1228.8 0
v -409.6 -1331.2 0
v -512 -1331.2 0
v -512 -1228.8 0
v -409.6 -1228.8 0
v -512 -1331.2 0
v -614.4 -1331.2 0
v -614.4 -1228.8 0
v -512 -1228.8 0
v -614.4 -1331.2 0
v -716.8 -1331.2 0
v -716.8 -1228.8 0
v -614.4 -1228.8 0
v -716.8 -1331.2 0
v -819.2 -1331.2 0
v -819.2 -1228.8 0
v -716.8 -1228.8 0
v 0 -1433.6 0
v -102.4 -1433.6 0
v -102.4 -1331.2 0
v 0 -1331.2 0
v -102.4 -1433.6 0
v -204.8 -1433.6 0
v -204.8 -1331.2 0
v -102.4 -1331.2 0
v -204.8 -1433.6 0
v -307.2 -1433.6 0
v -307.2 -1331.2 0
v -204.8 -1331.2 0
v -307.2 -1433.6 0
v -409.6 -1433.6 0
v -409.6 -1331.2 0
v -307.2 -1331.2 0
v -409.6 -1433.6 0
v -512 -1433.6 0
v -512 -1331.2 0
v -409.6 -1331.2 0
v -512 -1433.6 0
v -614.4 -1433.6 0
v -614.4 -1331.2 0
v -512 -1331.2 0
v -614.4 -1433.6 0
v -716.8 -1433.6 0
v -716.8 -1331.2 0
v -614.4 -1331.2 0
v -716.8 -1433.6 0
v -819.2 -1433.6 0
v -819.2 -1331.2 0
v -716.8 -1331.2 0
v 0 -1536 0
v -102.4 -1536 0
v -102.4 -1433.6 0
v 0 -1433.6 0
v -102.4 -1536 0
v -204.8 -1536 0
v -204.8 -1433.6 0
v -102.4 -1433.6 0
v -204.8 -1536 0
v -307.2 -1536 0
v -307.2 -1433.6 0
v -204.8 -1433.6 0
v -307.2 -1536 0
v -409.6 -1536 0
v -409.6 -1433.6 0
v -307.2 -1433.6 0
v -409.6 -1536 0
v -512 -1536 0
v -512 -1433.6 0
v -409.6 -1433.6 0
v -512 -1536 0
v -614.4 -1536 0
v -614.4 -1433.6 0
v -512 -1433.6 0
v -614.4 -1536 0
v -716.8 -1536 0
v -716.8 -1433.6 0
v -614.4 -1433.6 0
v -716.8 -1536 0
v -819.2 -1536 0
v -819.2 -1433.6 0
v -716.8 -1433.6 0
v -1024 -1536 0
v -1126.4 -1536 0
v -1126.4 -1433.6 0
v -1024 -1433.6 0

# Texture cooridinates (Count = 28)
vt 0.6875 0.15625
vt 0.71875 0.15625
vt 0.71875 0.1875
vt 0.6875 0.1875
vt 0.65625 0.125
vt 0.625 0.125
vt 0.625 0.15625
vt 0.65625 0.15625
vt 0.65625 0.03125
vt 0.625 0.03125
vt 0.625 0.0625
vt 0.65625 0.0625
vt 0.625 0.09375
vt 0.65625 0.09375
vt 0.8125 0.03125
vt 0.84375 0.03125
vt 0.84375 0.0625
vt 0.8125 0.0625
vt 0.75 0.03125
vt 0.71875 0.03125
vt 0.71875 0.0625
vt 0.75 0.0625
vt 0.65625 0.1875
vt 0.625 0.1875
vt 0.71875 0.09375
vt 0.75 0.09375
vt 0.75 0.125
vt 0.71875 0.125

# Normal
vn 0 0 -1

# Mesh description
g Temple_mesh_0015

# Faces
f 1/1/1 2/2/1 3/3/1 4/4/1
f 5/1/1 6/2/1 7/3/1 8/4/1
f 9/1/1 10/2/1 11/3/1 12/4/1
f 13/1/1 14/2/1 15/3/1 16/4/1
f 17/1/1 18/2/1 19/3/1 20/4/1
f 21/1/1 22/2/1 23/3/1 24/4/1
f 25/1/1 26/2/1 27/3/1 28/4/1
f 29/5/1 30/6/1 31/7/1 32/8/1
f 33/9/1 34/10/1 35/11/1 36/12/1
f 37/1/1 38/2/1 39/3/1 40/4/1
f 41/1/1 42/2/1 43/3/1 44/4/1
f 45/1/1 46/2/1 47/3/1 48/4/1
f 49/1/1 50/2/1 51/3/1 52/4/1
f 53/1/1 54/2/1 55/3/1 56/4/1
f 57/1/1 58/2/1 59/3/1 60/4/1
f 61/1/1 62/2/1 63/3/1 64/4/1
f 65/5/1 66/6/1 67/7/1 68/8/1
f 69/12/1 70/11/1 71/13/1 72/14/1
f 73/1/1 74/2/1 75/3/1 76/4/1
f 77/1/1 78/2/1 79/3/1 80/4/1
f 81/1/1 82/2/1 83/3/1 84/4/1
f 85/1/1 86/2/1 87/3/1 88/4/1
f 89/1/1 90/2/1 91/3/1 92/4/1
f 93/1/1 94/2/1 95/3/1 96/4/1
f 97/1/1 98/2/1 99/3/1 100/4/1
f 101/5/1 102/6/1 103/7/1 104/8/1
f 105/12/1 106/11/1 107/13/1 108/14/1
f 109/1/1 110/2/1 111/3/1 112/4/1
f 113/1/1 114/2/1 115/3/1 116/4/1
f 117/1/1 118/2/1 119/3/1 120/4/1
f 121/1/1 122/2/1 123/3/1 124/4/1
f 125/1/1 126/2/1 127/3/1 128/4/1
f 129/1/1 130/2/1 131/3/1 132/4/1
f 133/1/1 134/2/1 135/3/1 136/4/1
f 137/5/1 138/6/1 139/7/1 140/8/1
f 141/12/1 142/11/1 143/13/1 144/14/1
f 145/15/1 146/16/1 147/17/1 148/18/1
f 149/15/1 150/16/1 151/17/1 152/18/1
f 153/15/1 154/16/1 155/17/1 156/18/1
f 157/15/1 158/16/1 159/17/1 160/18/1
f 161/15/1 162/16/1 163/17/1 164/18/1
f 165/15/1 166/16/1 167/17/1 168/18/1
f 169/15/1 170/16/1 171/17/1 172/18/1
f 173/19/1 174/20/1 175/21/1 176/22/1
f 177/8/1 178/1/1 179/4/1 180/23/1
f 181/8/1 182/1/1 183/4/1 184/23/1
f 185/8/1 186/1/1 187/4/1 188/23/1
f 189/8/1 190/1/1 191/4/1 192/23/1
f 193/8/1 194/1/1 195/4/1 196/23/1
f 197/8/1 198/1/1 199/4/1 200/23/1
f 201/8/1 202/1/1 203/4/1 204/23/1
f 205/8/1 206/7/1 207/24/1 208/23/1
f 209/1/1 210/2/1 211/3/1 212/4/1
f 213/1/1 214/2/1 215/3/1 216/4/1
f 217/1/1 218/2/1 219/3/1 220/4/1
f 221/1/1 222/2/1 223/3/1 224/4/1
f 225/1/1 226/2/1 227/3/1 228/4/1
f 229/1/1 230/2/1 231/3/1 232/4/1
f 233/1/1 234/2/1 235/3/1 236/4/1
f 237/5/1 238/6/1 239/7/1 240/8/1
f 241/1/1 242/2/1 243/3/1 244/4/1
f 245/1/1 246/2/1 247/3/1 248/4/1
f 249/1/1 250/2/1 251/3/1 252/4/1
f 253/1/1 254/2/1 255/3/1 256/4/1
f 257/1/1 258/2/1 259/3/1 260/4/1
f 261/1/1 262/2/1 263/3/1 264/4/1
f 265/1/1 266/2/1 267/3/1 268/4/1
f 269/5/1 270/6/1 271/7/1 272/8/1
f 273/1/1 274/2/1 275/3/1 276/4/1
f 277/1/1 278/2/1 279/3/1 280/4/1
f 281/1/1 282/2/1 283/3/1 284/4/1
f 285/1/1 286/2/1 287/3/1 288/4/1
f 289/1/1 290/2/1 291/3/1 292/4/1
f 293/1/1 294/2/1 295/3/1 296/4/1
f 297/1/1 298/2/1 299/3/1 300/4/1
f 301/14/1 302/13/1 303/6/1 304/5/1
f 305/25/1 306/26/1 307/27/1 308/28/1

