# Tiled2Unity generated file. Do not modify by hand.
# Wavefront file for 'Temple_mesh_0363.obj'

# Vertices (Count = 12)
v -819.2 -614.4 0
v -921.6 -614.4 0
v -921.6 -512 0
v -819.2 -512 0
v -1126.4 -1126.4 0
v -1228.8 -1126.4 0
v -1228.8 -1024 0
v -1126.4 -1024 0
v -307.2 -1536 0
v -409.6 -1536 0
v -409.6 -1433.6 0
v -307.2 -1433.6 0

# Texture cooridinates (Count = 8)
vt 0.3125 0.1875
vt 0.34375 0.1875
vt 0.34375 0.21875
vt 0.3125 0.21875
vt 0.375 0.1875
vt 0.375 0.21875
vt 0.375 0.25
vt 0.34375 0.25

# Normal
vn 0 0 -1

# Mesh description
g Temple_mesh_0363

# Faces
f 1/1/1 2/2/1 3/3/1 4/4/1
f 5/2/1 6/5/1 7/6/1 8/3/1
f 9/3/1 10/6/1 11/7/1 12/8/1

