# Tiled2Unity generated file. Do not modify by hand.
# Wavefront file for 'Temple_mesh_0389.obj'

# Vertices (Count = 8)
v -512 -512 0
v -614.4 -512 0
v -614.4 -409.6 0
v -512 -409.6 0
v 0 -921.6 0
v -102.4 -921.6 0
v -102.4 -819.2 0
v 0 -819.2 0

# Texture cooridinates (Count = 7)
vt 0.4375 0.1875
vt 0.46875 0.1875
vt 0.46875 0.21875
vt 0.4375 0.21875
vt 0.40625 0.21875
vt 0.4375 0.25
vt 0.40625 0.25

# Normal
vn 0 0 -1

# Mesh description
g Temple_mesh_0389

# Faces
f 1/1/1 2/2/1 3/3/1 4/4/1
f 5/5/1 6/4/1 7/6/1 8/7/1

