# Tiled2Unity generated file. Do not modify by hand.
# Wavefront file for 'Temple_mesh_0003.obj'

# Vertices (Count = 100)
v -409.6 -1536 0
v -512 -1536 0
v -512 -1433.6 0
v -409.6 -1433.6 0
v -512 -1536 0
v -614.4 -1536 0
v -614.4 -1433.6 0
v -512 -1433.6 0
v -614.4 -1536 0
v -716.8 -1536 0
v -716.8 -1433.6 0
v -614.4 -1433.6 0
v -716.8 -1536 0
v -819.2 -1536 0
v -819.2 -1433.6 0
v -716.8 -1433.6 0
v -819.2 -1536 0
v -921.6 -1536 0
v -921.6 -1433.6 0
v -819.2 -1433.6 0
v -921.6 -1536 0
v -1024 -1536 0
v -1024 -1433.6 0
v -921.6 -1433.6 0
v -1024 -1536 0
v -1126.4 -1536 0
v -1126.4 -1433.6 0
v -1024 -1433.6 0
v -1126.4 -1536 0
v -1228.8 -1536 0
v -1228.8 -1433.6 0
v -1126.4 -1433.6 0
v -1228.8 -1536 0
v -1331.2 -1536 0
v -1331.2 -1433.6 0
v -1228.8 -1433.6 0
v -1331.2 -1536 0
v -1433.6 -1536 0
v -1433.6 -1433.6 0
v -1331.2 -1433.6 0
v -1433.6 -1536 0
v -1536 -1536 0
v -1536 -1433.6 0
v -1433.6 -1433.6 0
v -1536 -1536 0
v -1638.4 -1536 0
v -1638.4 -1433.6 0
v -1536 -1433.6 0
v -307.2 -1638.4 0
v -409.6 -1638.4 0
v -409.6 -1536 0
v -307.2 -1536 0
v -409.6 -1638.4 0
v -512 -1638.4 0
v -512 -1536 0
v -409.6 -1536 0
v -512 -1638.4 0
v -614.4 -1638.4 0
v -614.4 -1536 0
v -512 -1536 0
v -614.4 -1638.4 0
v -716.8 -1638.4 0
v -716.8 -1536 0
v -614.4 -1536 0
v -716.8 -1638.4 0
v -819.2 -1638.4 0
v -819.2 -1536 0
v -716.8 -1536 0
v -819.2 -1638.4 0
v -921.6 -1638.4 0
v -921.6 -1536 0
v -819.2 -1536 0
v -921.6 -1638.4 0
v -1024 -1638.4 0
v -1024 -1536 0
v -921.6 -1536 0
v -1024 -1638.4 0
v -1126.4 -1638.4 0
v -1126.4 -1536 0
v -1024 -1536 0
v -1126.4 -1638.4 0
v -1228.8 -1638.4 0
v -1228.8 -1536 0
v -1126.4 -1536 0
v -1228.8 -1638.4 0
v -1331.2 -1638.4 0
v -1331.2 -1536 0
v -1228.8 -1536 0
v -1331.2 -1638.4 0
v -1433.6 -1638.4 0
v -1433.6 -1536 0
v -1331.2 -1536 0
v -1433.6 -1638.4 0
v -1536 -1638.4 0
v -1536 -1536 0
v -1433.6 -1536 0
v -1536 -1638.4 0
v -1638.4 -1638.4 0
v -1638.4 -1536 0
v -1536 -1536 0

# Texture cooridinates (Count = 8)
vt 0.71875 0
vt 0.71875 0.03125
vt 0.6875 0.03125
vt 0.6875 0
vt 0.9375 0.15625
vt 0.96875 0.15625
vt 0.96875 0.1875
vt 0.9375 0.1875

# Normal
vn 0 0 -1

# Mesh description
g Temple_mesh_0003

# Faces
f 1/1/1 2/2/1 3/3/1 4/4/1
f 5/1/1 6/2/1 7/3/1 8/4/1
f 9/1/1 10/2/1 11/3/1 12/4/1
f 13/1/1 14/2/1 15/3/1 16/4/1
f 17/1/1 18/2/1 19/3/1 20/4/1
f 21/1/1 22/2/1 23/3/1 24/4/1
f 25/1/1 26/2/1 27/3/1 28/4/1
f 29/1/1 30/2/1 31/3/1 32/4/1
f 33/1/1 34/2/1 35/3/1 36/4/1
f 37/1/1 38/2/1 39/3/1 40/4/1
f 41/1/1 42/2/1 43/3/1 44/4/1
f 45/1/1 46/2/1 47/3/1 48/4/1
f 49/5/1 50/6/1 51/7/1 52/8/1
f 53/5/1 54/6/1 55/7/1 56/8/1
f 57/5/1 58/6/1 59/7/1 60/8/1
f 61/5/1 62/6/1 63/7/1 64/8/1
f 65/5/1 66/6/1 67/7/1 68/8/1
f 69/5/1 70/6/1 71/7/1 72/8/1
f 73/5/1 74/6/1 75/7/1 76/8/1
f 77/5/1 78/6/1 79/7/1 80/8/1
f 81/5/1 82/6/1 83/7/1 84/8/1
f 85/5/1 86/6/1 87/7/1 88/8/1
f 89/5/1 90/6/1 91/7/1 92/8/1
f 93/5/1 94/6/1 95/7/1 96/8/1
f 97/5/1 98/6/1 99/7/1 100/8/1

