# Tiled2Unity generated file. Do not modify by hand.
# Wavefront file for 'Temple_mesh_0657.obj'

# Vertices (Count = 96)
v -409.6 -102.4 0
v -512 -102.4 0
v -512 0 0
v -409.6 0 0
v -512 -102.4 0
v -614.4 -102.4 0
v -614.4 0 0
v -512 0 0
v -614.4 -102.4 0
v -716.8 -102.4 0
v -716.8 0 0
v -614.4 0 0
v -716.8 -102.4 0
v -819.2 -102.4 0
v -819.2 0 0
v -716.8 0 0
v -819.2 -102.4 0
v -921.6 -102.4 0
v -921.6 0 0
v -819.2 0 0
v -921.6 -102.4 0
v -1024 -102.4 0
v -1024 0 0
v -921.6 0 0
v -1024 -102.4 0
v -1126.4 -102.4 0
v -1126.4 0 0
v -1024 0 0
v -1126.4 -102.4 0
v -1228.8 -102.4 0
v -1228.8 0 0
v -1126.4 0 0
v -1228.8 -102.4 0
v -1331.2 -102.4 0
v -1331.2 0 0
v -1228.8 0 0
v -1331.2 -102.4 0
v -1433.6 -102.4 0
v -1433.6 0 0
v -1331.2 0 0
v -1433.6 -102.4 0
v -1536 -102.4 0
v -1536 0 0
v -1433.6 0 0
v -1536 -102.4 0
v -1638.4 -102.4 0
v -1638.4 0 0
v -1536 0 0
v -409.6 -204.8 0
v -512 -204.8 0
v -512 -102.4 0
v -409.6 -102.4 0
v -512 -204.8 0
v -614.4 -204.8 0
v -614.4 -102.4 0
v -512 -102.4 0
v -614.4 -204.8 0
v -716.8 -204.8 0
v -716.8 -102.4 0
v -614.4 -102.4 0
v -716.8 -204.8 0
v -819.2 -204.8 0
v -819.2 -102.4 0
v -716.8 -102.4 0
v -819.2 -204.8 0
v -921.6 -204.8 0
v -921.6 -102.4 0
v -819.2 -102.4 0
v -921.6 -204.8 0
v -1024 -204.8 0
v -1024 -102.4 0
v -921.6 -102.4 0
v -1024 -204.8 0
v -1126.4 -204.8 0
v -1126.4 -102.4 0
v -1024 -102.4 0
v -1126.4 -204.8 0
v -1228.8 -204.8 0
v -1228.8 -102.4 0
v -1126.4 -102.4 0
v -1228.8 -204.8 0
v -1331.2 -204.8 0
v -1331.2 -102.4 0
v -1228.8 -102.4 0
v -1331.2 -204.8 0
v -1433.6 -204.8 0
v -1433.6 -102.4 0
v -1331.2 -102.4 0
v -1433.6 -204.8 0
v -1536 -204.8 0
v -1536 -102.4 0
v -1433.6 -102.4 0
v -1536 -204.8 0
v -1638.4 -204.8 0
v -1638.4 -102.4 0
v -1536 -102.4 0

# Texture cooridinates (Count = 12)
vt 0.84375 0.4375
vt 0.875 0.4375
vt 0.875 0.46875
vt 0.84375 0.46875
vt 0.90625 0.4375
vt 0.90625 0.46875
vt 0.9375 0.4375
vt 0.9375 0.46875
vt 0.84375 0.40625
vt 0.875 0.40625
vt 0.90625 0.40625
vt 0.9375 0.40625

# Normal
vn 0 0 -1

# Mesh description
g Temple_mesh_0657

# Faces
f 1/1/1 2/2/1 3/3/1 4/4/1
f 5/2/1 6/5/1 7/6/1 8/3/1
f 9/5/1 10/7/1 11/8/1 12/6/1
f 13/1/1 14/2/1 15/3/1 16/4/1
f 17/2/1 18/5/1 19/6/1 20/3/1
f 21/5/1 22/7/1 23/8/1 24/6/1
f 25/1/1 26/2/1 27/3/1 28/4/1
f 29/2/1 30/5/1 31/6/1 32/3/1
f 33/5/1 34/7/1 35/8/1 36/6/1
f 37/1/1 38/2/1 39/3/1 40/4/1
f 41/2/1 42/5/1 43/6/1 44/3/1
f 45/5/1 46/7/1 47/8/1 48/6/1
f 49/9/1 50/10/1 51/2/1 52/1/1
f 53/10/1 54/11/1 55/5/1 56/2/1
f 57/11/1 58/12/1 59/7/1 60/5/1
f 61/9/1 62/10/1 63/2/1 64/1/1
f 65/10/1 66/11/1 67/5/1 68/2/1
f 69/11/1 70/12/1 71/7/1 72/5/1
f 73/9/1 74/10/1 75/2/1 76/1/1
f 77/10/1 78/11/1 79/5/1 80/2/1
f 81/11/1 82/12/1 83/7/1 84/5/1
f 85/9/1 86/10/1 87/2/1 88/1/1
f 89/10/1 90/11/1 91/5/1 92/2/1
f 93/11/1 94/12/1 95/7/1 96/5/1

