# Tiled2Unity generated file. Do not modify by hand.
# Wavefront file for 'Temple_mesh_0453.obj'

# Vertices (Count = 12)
v -716.8 -102.4 0
v -819.2 -102.4 0
v -819.2 0 0
v -716.8 0 0
v -614.4 -1433.6 0
v -716.8 -1433.6 0
v -716.8 -1331.2 0
v -614.4 -1331.2 0
v -1536 -1638.4 0
v -1638.4 -1638.4 0
v -1638.4 -1536 0
v -1536 -1536 0

# Texture cooridinates (Count = 10)
vt 0.3125 0.1875
vt 0.34375 0.1875
vt 0.34375 0.21875
vt 0.3125 0.21875
vt 0.28125 0.125
vt 0.3125 0.125
vt 0.3125 0.15625
vt 0.28125 0.15625
vt 0.28125 0.1875
vt 0.28125 0.21875

# Normal
vn 0 0 -1

# Mesh description
g Temple_mesh_0453

# Faces
f 1/1/1 2/2/1 3/3/1 4/4/1
f 5/5/1 6/6/1 7/7/1 8/8/1
f 9/9/1 10/1/1 11/4/1 12/10/1

