# Tiled2Unity generated file. Do not modify by hand.
# Wavefront file for 'Temple_mesh_0035.obj'

# Vertices (Count = 16)
v -204.8 -716.8 0
v -307.2 -716.8 0
v -307.2 -614.4 0
v -204.8 -614.4 0
v -1331.2 -716.8 0
v -1433.6 -716.8 0
v -1433.6 -614.4 0
v -1331.2 -614.4 0
v -204.8 -1228.8 0
v -307.2 -1228.8 0
v -307.2 -1126.4 0
v -204.8 -1126.4 0
v -614.4 -1536 0
v -716.8 -1536 0
v -716.8 -1433.6 0
v -614.4 -1433.6 0

# Texture cooridinates (Count = 8)
vt 0.34375 0.53125
vt 0.375 0.53125
vt 0.375 0.5625
vt 0.34375 0.5625
vt 0.3125 0.53125
vt 0.3125 0.5625
vt 0.28125 0.53125
vt 0.28125 0.5625

# Normal
vn 0 0 -1

# Mesh description
g Temple_mesh_0035

# Faces
f 1/1/1 2/2/1 3/3/1 4/4/1
f 5/5/1 6/1/1 7/4/1 8/6/1
f 9/7/1 10/5/1 11/6/1 12/8/1
f 13/1/1 14/2/1 15/3/1 16/4/1

