# Tiled2Unity generated file. Do not modify by hand.
# Wavefront file for 'Temple_mesh_0411.obj'

# Vertices (Count = 8)
v -716.8 -1228.8 0
v -819.2 -1228.8 0
v -819.2 -1126.4 0
v -716.8 -1126.4 0
v 0 -1536 0
v -102.4 -1536 0
v -102.4 -1433.6 0
v 0 -1433.6 0

# Texture cooridinates (Count = 8)
vt 0.3125 0.15625
vt 0.34375 0.15625
vt 0.34375 0.1875
vt 0.3125 0.1875
vt 0.40625 0.21875
vt 0.4375 0.21875
vt 0.4375 0.25
vt 0.40625 0.25

# Normal
vn 0 0 -1

# Mesh description
g Temple_mesh_0411

# Faces
f 1/1/1 2/2/1 3/3/1 4/4/1
f 5/5/1 6/6/1 7/7/1 8/8/1

