# Tiled2Unity generated file. Do not modify by hand.
# Wavefront file for 'Temple_mesh_0225.obj'

# Vertices (Count = 156)
v 0 -102.4 0
v -102.4 -102.4 0
v -102.4 0 0
v 0 0 0
v -102.4 -102.4 0
v -204.8 -102.4 0
v -204.8 0 0
v -102.4 0 0
v -204.8 -102.4 0
v -307.2 -102.4 0
v -307.2 0 0
v -204.8 0 0
v 0 -204.8 0
v -102.4 -204.8 0
v -102.4 -102.4 0
v 0 -102.4 0
v -102.4 -204.8 0
v -204.8 -204.8 0
v -204.8 -102.4 0
v -102.4 -102.4 0
v -204.8 -204.8 0
v -307.2 -204.8 0
v -307.2 -102.4 0
v -204.8 -102.4 0
v 0 -307.2 0
v -102.4 -307.2 0
v -102.4 -204.8 0
v 0 -204.8 0
v -102.4 -307.2 0
v -204.8 -307.2 0
v -204.8 -204.8 0
v -102.4 -204.8 0
v -204.8 -307.2 0
v -307.2 -307.2 0
v -307.2 -204.8 0
v -204.8 -204.8 0
v 0 -409.6 0
v -102.4 -409.6 0
v -102.4 -307.2 0
v 0 -307.2 0
v -102.4 -409.6 0
v -204.8 -409.6 0
v -204.8 -307.2 0
v -102.4 -307.2 0
v -204.8 -409.6 0
v -307.2 -409.6 0
v -307.2 -307.2 0
v -204.8 -307.2 0
v 0 -512 0
v -102.4 -512 0
v -102.4 -409.6 0
v 0 -409.6 0
v -102.4 -512 0
v -204.8 -512 0
v -204.8 -409.6 0
v -102.4 -409.6 0
v -204.8 -512 0
v -307.2 -512 0
v -307.2 -409.6 0
v -204.8 -409.6 0
v 0 -614.4 0
v -102.4 -614.4 0
v -102.4 -512 0
v 0 -512 0
v -102.4 -614.4 0
v -204.8 -614.4 0
v -204.8 -512 0
v -102.4 -512 0
v -204.8 -614.4 0
v -307.2 -614.4 0
v -307.2 -512 0
v -204.8 -512 0
v 0 -716.8 0
v -102.4 -716.8 0
v -102.4 -614.4 0
v 0 -614.4 0
v -102.4 -716.8 0
v -204.8 -716.8 0
v -204.8 -614.4 0
v -102.4 -614.4 0
v -204.8 -716.8 0
v -307.2 -716.8 0
v -307.2 -614.4 0
v -204.8 -614.4 0
v 0 -819.2 0
v -102.4 -819.2 0
v -102.4 -716.8 0
v 0 -716.8 0
v -102.4 -819.2 0
v -204.8 -819.2 0
v -204.8 -716.8 0
v -102.4 -716.8 0
v -204.8 -819.2 0
v -307.2 -819.2 0
v -307.2 -716.8 0
v -204.8 -716.8 0
v 0 -921.6 0
v -102.4 -921.6 0
v -102.4 -819.2 0
v 0 -819.2 0
v -102.4 -921.6 0
v -204.8 -921.6 0
v -204.8 -819.2 0
v -102.4 -819.2 0
v -204.8 -921.6 0
v -307.2 -921.6 0
v -307.2 -819.2 0
v -204.8 -819.2 0
v 0 -1024 0
v -102.4 -1024 0
v -102.4 -921.6 0
v 0 -921.6 0
v -102.4 -1024 0
v -204.8 -1024 0
v -204.8 -921.6 0
v -102.4 -921.6 0
v -204.8 -1024 0
v -307.2 -1024 0
v -307.2 -921.6 0
v -204.8 -921.6 0
v 0 -1126.4 0
v -102.4 -1126.4 0
v -102.4 -1024 0
v 0 -1024 0
v -102.4 -1126.4 0
v -204.8 -1126.4 0
v -204.8 -1024 0
v -102.4 -1024 0
v -204.8 -1126.4 0
v -307.2 -1126.4 0
v -307.2 -1024 0
v -204.8 -1024 0
v 0 -1228.8 0
v -102.4 -1228.8 0
v -102.4 -1126.4 0
v 0 -1126.4 0
v -102.4 -1228.8 0
v -204.8 -1228.8 0
v -204.8 -1126.4 0
v -102.4 -1126.4 0
v -204.8 -1228.8 0
v -307.2 -1228.8 0
v -307.2 -1126.4 0
v -204.8 -1126.4 0
v 0 -1331.2 0
v -102.4 -1331.2 0
v -102.4 -1228.8 0
v 0 -1228.8 0
v -102.4 -1331.2 0
v -204.8 -1331.2 0
v -204.8 -1228.8 0
v -102.4 -1228.8 0
v -204.8 -1331.2 0
v -307.2 -1331.2 0
v -307.2 -1228.8 0
v -204.8 -1228.8 0

# Texture cooridinates (Count = 9)
vt 0.6875 0.6875
vt 0.71875 0.6875
vt 0.71875 0.71875
vt 0.6875 0.71875
vt 0.75 0.6875
vt 0.75 0.71875
vt 0.6875 0.65625
vt 0.71875 0.65625
vt 0.75 0.65625

# Normal
vn 0 0 -1

# Mesh description
g Temple_mesh_0225

# Faces
f 1/1/1 2/2/1 3/3/1 4/4/1
f 5/1/1 6/2/1 7/3/1 8/4/1
f 9/2/1 10/5/1 11/6/1 12/3/1
f 13/1/1 14/2/1 15/3/1 16/4/1
f 17/1/1 18/2/1 19/3/1 20/4/1
f 21/2/1 22/5/1 23/6/1 24/3/1
f 25/1/1 26/2/1 27/3/1 28/4/1
f 29/1/1 30/2/1 31/3/1 32/4/1
f 33/2/1 34/5/1 35/6/1 36/3/1
f 37/1/1 38/2/1 39/3/1 40/4/1
f 41/1/1 42/2/1 43/3/1 44/4/1
f 45/2/1 46/5/1 47/6/1 48/3/1
f 49/1/1 50/2/1 51/3/1 52/4/1
f 53/1/1 54/2/1 55/3/1 56/4/1
f 57/2/1 58/5/1 59/6/1 60/3/1
f 61/1/1 62/2/1 63/3/1 64/4/1
f 65/1/1 66/2/1 67/3/1 68/4/1
f 69/2/1 70/5/1 71/6/1 72/3/1
f 73/1/1 74/2/1 75/3/1 76/4/1
f 77/1/1 78/2/1 79/3/1 80/4/1
f 81/2/1 82/5/1 83/6/1 84/3/1
f 85/1/1 86/2/1 87/3/1 88/4/1
f 89/1/1 90/2/1 91/3/1 92/4/1
f 93/2/1 94/5/1 95/6/1 96/3/1
f 97/1/1 98/2/1 99/3/1 100/4/1
f 101/1/1 102/2/1 103/3/1 104/4/1
f 105/2/1 106/5/1 107/6/1 108/3/1
f 109/1/1 110/2/1 111/3/1 112/4/1
f 113/1/1 114/2/1 115/3/1 116/4/1
f 117/2/1 118/5/1 119/6/1 120/3/1
f 121/1/1 122/2/1 123/3/1 124/4/1
f 125/1/1 126/2/1 127/3/1 128/4/1
f 129/2/1 130/5/1 131/6/1 132/3/1
f 133/1/1 134/2/1 135/3/1 136/4/1
f 137/1/1 138/2/1 139/3/1 140/4/1
f 141/2/1 142/5/1 143/6/1 144/3/1
f 145/7/1 146/8/1 147/2/1 148/1/1
f 149/7/1 150/8/1 151/2/1 152/1/1
f 153/8/1 154/9/1 155/5/1 156/2/1

