# Tiled2Unity generated file. Do not modify by hand.
# Wavefront file for 'Temple_mesh_0463.obj'

# Vertices (Count = 8)
v -409.6 -921.6 0
v -512 -921.6 0
v -512 -819.2 0
v -409.6 -819.2 0
v -102.4 -1331.2 0
v -204.8 -1331.2 0
v -204.8 -1228.8 0
v -102.4 -1228.8 0

# Texture cooridinates (Count = 8)
vt 0.3125 0.1875
vt 0.34375 0.1875
vt 0.34375 0.21875
vt 0.3125 0.21875
vt 0.40625 0.21875
vt 0.4375 0.21875
vt 0.4375 0.25
vt 0.40625 0.25

# Normal
vn 0 0 -1

# Mesh description
g Temple_mesh_0463

# Faces
f 1/1/1 2/2/1 3/3/1 4/4/1
f 5/5/1 6/6/1 7/7/1 8/8/1

