# Tiled2Unity generated file. Do not modify by hand.
# Wavefront file for 'Temple_mesh_0368.obj'

# Vertices (Count = 8)
v -1536 -1024 0
v -1638.4 -1024 0
v -1638.4 -921.6 0
v -1536 -921.6 0
v -1536 -1433.6 0
v -1638.4 -1433.6 0
v -1638.4 -1331.2 0
v -1536 -1331.2 0

# Texture cooridinates (Count = 8)
vt 0.4375 0.1875
vt 0.46875 0.1875
vt 0.46875 0.21875
vt 0.4375 0.21875
vt 0.28125 0.125
vt 0.3125 0.125
vt 0.3125 0.15625
vt 0.28125 0.15625

# Normal
vn 0 0 -1

# Mesh description
g Temple_mesh_0368

# Faces
f 1/1/1 2/2/1 3/3/1 4/4/1
f 5/5/1 6/6/1 7/7/1 8/8/1

