# Tiled2Unity generated file. Do not modify by hand.
# Wavefront file for 'Temple_mesh_0046.obj'

# Vertices (Count = 56)
v -921.6 -1536 0
v -1024 -1536 0
v -1024 -1433.6 0
v -921.6 -1433.6 0
v -1024 -1536 0
v -1126.4 -1536 0
v -1126.4 -1433.6 0
v -1024 -1433.6 0
v -1126.4 -1536 0
v -1228.8 -1536 0
v -1228.8 -1433.6 0
v -1126.4 -1433.6 0
v -1228.8 -1536 0
v -1331.2 -1536 0
v -1331.2 -1433.6 0
v -1228.8 -1433.6 0
v -1331.2 -1536 0
v -1433.6 -1536 0
v -1433.6 -1433.6 0
v -1331.2 -1433.6 0
v -1433.6 -1536 0
v -1536 -1536 0
v -1536 -1433.6 0
v -1433.6 -1433.6 0
v -1536 -1536 0
v -1638.4 -1536 0
v -1638.4 -1433.6 0
v -1536 -1433.6 0
v -921.6 -1638.4 0
v -1024 -1638.4 0
v -1024 -1536 0
v -921.6 -1536 0
v -1024 -1638.4 0
v -1126.4 -1638.4 0
v -1126.4 -1536 0
v -1024 -1536 0
v -1126.4 -1638.4 0
v -1228.8 -1638.4 0
v -1228.8 -1536 0
v -1126.4 -1536 0
v -1228.8 -1638.4 0
v -1331.2 -1638.4 0
v -1331.2 -1536 0
v -1228.8 -1536 0
v -1331.2 -1638.4 0
v -1433.6 -1638.4 0
v -1433.6 -1536 0
v -1331.2 -1536 0
v -1433.6 -1638.4 0
v -1536 -1638.4 0
v -1536 -1536 0
v -1433.6 -1536 0
v -1536 -1638.4 0
v -1638.4 -1638.4 0
v -1638.4 -1536 0
v -1536 -1536 0

# Texture cooridinates (Count = 6)
vt 0.6875 0.90625
vt 0.71875 0.90625
vt 0.71875 0.9375
vt 0.6875 0.9375
vt 0.6875 0.875
vt 0.71875 0.875

# Normal
vn 0 0 -1

# Mesh description
g Temple_mesh_0046

# Faces
f 1/1/1 2/2/1 3/3/1 4/4/1
f 5/1/1 6/2/1 7/3/1 8/4/1
f 9/1/1 10/2/1 11/3/1 12/4/1
f 13/1/1 14/2/1 15/3/1 16/4/1
f 17/1/1 18/2/1 19/3/1 20/4/1
f 21/1/1 22/2/1 23/3/1 24/4/1
f 25/1/1 26/2/1 27/3/1 28/4/1
f 29/5/1 30/6/1 31/2/1 32/1/1
f 33/5/1 34/6/1 35/2/1 36/1/1
f 37/5/1 38/6/1 39/2/1 40/1/1
f 41/5/1 42/6/1 43/2/1 44/1/1
f 45/5/1 46/6/1 47/2/1 48/1/1
f 49/5/1 50/6/1 51/2/1 52/1/1
f 53/5/1 54/6/1 55/2/1 56/1/1

