# Tiled2Unity generated file. Do not modify by hand.
# Wavefront file for 'Temple_mesh_0656.obj'

# Vertices (Count = 88)
v 0 -1536 0
v -102.4 -1536 0
v -102.4 -1433.6 0
v 0 -1433.6 0
v -102.4 -1536 0
v -204.8 -1536 0
v -204.8 -1433.6 0
v -102.4 -1433.6 0
v -204.8 -1536 0
v -307.2 -1536 0
v -307.2 -1433.6 0
v -204.8 -1433.6 0
v -307.2 -1536 0
v -409.6 -1536 0
v -409.6 -1433.6 0
v -307.2 -1433.6 0
v -614.4 -1536 0
v -716.8 -1536 0
v -716.8 -1433.6 0
v -614.4 -1433.6 0
v -716.8 -1536 0
v -819.2 -1536 0
v -819.2 -1433.6 0
v -716.8 -1433.6 0
v -819.2 -1536 0
v -921.6 -1536 0
v -921.6 -1433.6 0
v -819.2 -1433.6 0
v -921.6 -1536 0
v -1024 -1536 0
v -1024 -1433.6 0
v -921.6 -1433.6 0
v -1024 -1536 0
v -1126.4 -1536 0
v -1126.4 -1433.6 0
v -1024 -1433.6 0
v -1126.4 -1536 0
v -1228.8 -1536 0
v -1228.8 -1433.6 0
v -1126.4 -1433.6 0
v 0 -1638.4 0
v -102.4 -1638.4 0
v -102.4 -1536 0
v 0 -1536 0
v -102.4 -1638.4 0
v -204.8 -1638.4 0
v -204.8 -1536 0
v -102.4 -1536 0
v -204.8 -1638.4 0
v -307.2 -1638.4 0
v -307.2 -1536 0
v -204.8 -1536 0
v -307.2 -1638.4 0
v -409.6 -1638.4 0
v -409.6 -1536 0
v -307.2 -1536 0
v -409.6 -1638.4 0
v -512 -1638.4 0
v -512 -1536 0
v -409.6 -1536 0
v -512 -1638.4 0
v -614.4 -1638.4 0
v -614.4 -1536 0
v -512 -1536 0
v -614.4 -1638.4 0
v -716.8 -1638.4 0
v -716.8 -1536 0
v -614.4 -1536 0
v -716.8 -1638.4 0
v -819.2 -1638.4 0
v -819.2 -1536 0
v -716.8 -1536 0
v -819.2 -1638.4 0
v -921.6 -1638.4 0
v -921.6 -1536 0
v -819.2 -1536 0
v -921.6 -1638.4 0
v -1024 -1638.4 0
v -1024 -1536 0
v -921.6 -1536 0
v -1024 -1638.4 0
v -1126.4 -1638.4 0
v -1126.4 -1536 0
v -1024 -1536 0
v -1126.4 -1638.4 0
v -1228.8 -1638.4 0
v -1228.8 -1536 0
v -1126.4 -1536 0

# Texture cooridinates (Count = 20)
vt 0.84375 0.5
vt 0.875 0.5
vt 0.875 0.53125
vt 0.84375 0.53125
vt 0.90625 0.5
vt 0.90625 0.53125
vt 0.9375 0.5
vt 0.9375 0.53125
vt 0.84375 0.46875
vt 0.875 0.46875
vt 0.90625 0.46875
vt 0.9375 0.46875
vt 0.84375 0.59375
vt 0.875 0.59375
vt 0.875 0.625
vt 0.84375 0.625
vt 0.90625 0.59375
vt 0.90625 0.625
vt 0.9375 0.59375
vt 0.9375 0.625

# Normal
vn 0 0 -1

# Mesh description
g Temple_mesh_0656

# Faces
f 1/1/1 2/2/1 3/3/1 4/4/1
f 5/2/1 6/5/1 7/6/1 8/3/1
f 9/5/1 10/7/1 11/8/1 12/6/1
f 13/1/1 14/2/1 15/3/1 16/4/1
f 17/1/1 18/2/1 19/3/1 20/4/1
f 21/2/1 22/5/1 23/6/1 24/3/1
f 25/5/1 26/7/1 27/8/1 28/6/1
f 29/1/1 30/2/1 31/3/1 32/4/1
f 33/2/1 34/5/1 35/6/1 36/3/1
f 37/5/1 38/7/1 39/8/1 40/6/1
f 41/9/1 42/10/1 43/2/1 44/1/1
f 45/10/1 46/11/1 47/5/1 48/2/1
f 49/11/1 50/12/1 51/7/1 52/5/1
f 53/13/1 54/14/1 55/15/1 56/16/1
f 57/14/1 58/17/1 59/18/1 60/15/1
f 61/17/1 62/19/1 63/20/1 64/18/1
f 65/9/1 66/10/1 67/2/1 68/1/1
f 69/10/1 70/11/1 71/5/1 72/2/1
f 73/11/1 74/12/1 75/7/1 76/5/1
f 77/9/1 78/10/1 79/2/1 80/1/1
f 81/10/1 82/11/1 83/5/1 84/2/1
f 85/11/1 86/12/1 87/7/1 88/5/1

