# Tiled2Unity generated file. Do not modify by hand.
# Wavefront file for 'Temple_mesh_0166.obj'

# Vertices (Count = 512)
v -819.2 -102.4 0
v -921.6 -102.4 0
v -921.6 0 0
v -819.2 0 0
v -921.6 -102.4 0
v -1024 -102.4 0
v -1024 0 0
v -921.6 0 0
v -1024 -102.4 0
v -1126.4 -102.4 0
v -1126.4 0 0
v -1024 0 0
v -1126.4 -102.4 0
v -1228.8 -102.4 0
v -1228.8 0 0
v -1126.4 0 0
v -1228.8 -102.4 0
v -1331.2 -102.4 0
v -1331.2 0 0
v -1228.8 0 0
v -1331.2 -102.4 0
v -1433.6 -102.4 0
v -1433.6 0 0
v -1331.2 0 0
v -1433.6 -102.4 0
v -1536 -102.4 0
v -1536 0 0
v -1433.6 0 0
v -1536 -102.4 0
v -1638.4 -102.4 0
v -1638.4 0 0
v -1536 0 0
v -819.2 -204.8 0
v -921.6 -204.8 0
v -921.6 -102.4 0
v -819.2 -102.4 0
v -921.6 -204.8 0
v -1024 -204.8 0
v -1024 -102.4 0
v -921.6 -102.4 0
v -1024 -204.8 0
v -1126.4 -204.8 0
v -1126.4 -102.4 0
v -1024 -102.4 0
v -1126.4 -204.8 0
v -1228.8 -204.8 0
v -1228.8 -102.4 0
v -1126.4 -102.4 0
v -1228.8 -204.8 0
v -1331.2 -204.8 0
v -1331.2 -102.4 0
v -1228.8 -102.4 0
v -1331.2 -204.8 0
v -1433.6 -204.8 0
v -1433.6 -102.4 0
v -1331.2 -102.4 0
v -1433.6 -204.8 0
v -1536 -204.8 0
v -1536 -102.4 0
v -1433.6 -102.4 0
v -1536 -204.8 0
v -1638.4 -204.8 0
v -1638.4 -102.4 0
v -1536 -102.4 0
v -819.2 -307.2 0
v -921.6 -307.2 0
v -921.6 -204.8 0
v -819.2 -204.8 0
v -921.6 -307.2 0
v -1024 -307.2 0
v -1024 -204.8 0
v -921.6 -204.8 0
v -1024 -307.2 0
v -1126.4 -307.2 0
v -1126.4 -204.8 0
v -1024 -204.8 0
v -1126.4 -307.2 0
v -1228.8 -307.2 0
v -1228.8 -204.8 0
v -1126.4 -204.8 0
v -1228.8 -307.2 0
v -1331.2 -307.2 0
v -1331.2 -204.8 0
v -1228.8 -204.8 0
v -1331.2 -307.2 0
v -1433.6 -307.2 0
v -1433.6 -204.8 0
v -1331.2 -204.8 0
v -1433.6 -307.2 0
v -1536 -307.2 0
v -1536 -204.8 0
v -1433.6 -204.8 0
v -1536 -307.2 0
v -1638.4 -307.2 0
v -1638.4 -204.8 0
v -1536 -204.8 0
v -819.2 -409.6 0
v -921.6 -409.6 0
v -921.6 -307.2 0
v -819.2 -307.2 0
v -921.6 -409.6 0
v -1024 -409.6 0
v -1024 -307.2 0
v -921.6 -307.2 0
v -1024 -409.6 0
v -1126.4 -409.6 0
v -1126.4 -307.2 0
v -1024 -307.2 0
v -1126.4 -409.6 0
v -1228.8 -409.6 0
v -1228.8 -307.2 0
v -1126.4 -307.2 0
v -1228.8 -409.6 0
v -1331.2 -409.6 0
v -1331.2 -307.2 0
v -1228.8 -307.2 0
v -1331.2 -409.6 0
v -1433.6 -409.6 0
v -1433.6 -307.2 0
v -1331.2 -307.2 0
v -1433.6 -409.6 0
v -1536 -409.6 0
v -1536 -307.2 0
v -1433.6 -307.2 0
v -1536 -409.6 0
v -1638.4 -409.6 0
v -1638.4 -307.2 0
v -1536 -307.2 0
v -819.2 -512 0
v -921.6 -512 0
v -921.6 -409.6 0
v -819.2 -409.6 0
v -921.6 -512 0
v -1024 -512 0
v -1024 -409.6 0
v -921.6 -409.6 0
v -1024 -512 0
v -1126.4 -512 0
v -1126.4 -409.6 0
v -1024 -409.6 0
v -1126.4 -512 0
v -1228.8 -512 0
v -1228.8 -409.6 0
v -1126.4 -409.6 0
v -1228.8 -512 0
v -1331.2 -512 0
v -1331.2 -409.6 0
v -1228.8 -409.6 0
v -1331.2 -512 0
v -1433.6 -512 0
v -1433.6 -409.6 0
v -1331.2 -409.6 0
v -1433.6 -512 0
v -1536 -512 0
v -1536 -409.6 0
v -1433.6 -409.6 0
v -1536 -512 0
v -1638.4 -512 0
v -1638.4 -409.6 0
v -1536 -409.6 0
v -819.2 -614.4 0
v -921.6 -614.4 0
v -921.6 -512 0
v -819.2 -512 0
v -921.6 -614.4 0
v -1024 -614.4 0
v -1024 -512 0
v -921.6 -512 0
v -1024 -614.4 0
v -1126.4 -614.4 0
v -1126.4 -512 0
v -1024 -512 0
v -1126.4 -614.4 0
v -1228.8 -614.4 0
v -1228.8 -512 0
v -1126.4 -512 0
v -1228.8 -614.4 0
v -1331.2 -614.4 0
v -1331.2 -512 0
v -1228.8 -512 0
v -1331.2 -614.4 0
v -1433.6 -614.4 0
v -1433.6 -512 0
v -1331.2 -512 0
v -1433.6 -614.4 0
v -1536 -614.4 0
v -1536 -512 0
v -1433.6 -512 0
v -1536 -614.4 0
v -1638.4 -614.4 0
v -1638.4 -512 0
v -1536 -512 0
v -819.2 -716.8 0
v -921.6 -716.8 0
v -921.6 -614.4 0
v -819.2 -614.4 0
v -921.6 -716.8 0
v -1024 -716.8 0
v -1024 -614.4 0
v -921.6 -614.4 0
v -1024 -716.8 0
v -1126.4 -716.8 0
v -1126.4 -614.4 0
v -1024 -614.4 0
v -1126.4 -716.8 0
v -1228.8 -716.8 0
v -1228.8 -614.4 0
v -1126.4 -614.4 0
v -1228.8 -716.8 0
v -1331.2 -716.8 0
v -1331.2 -614.4 0
v -1228.8 -614.4 0
v -1331.2 -716.8 0
v -1433.6 -716.8 0
v -1433.6 -614.4 0
v -1331.2 -614.4 0
v -1433.6 -716.8 0
v -1536 -716.8 0
v -1536 -614.4 0
v -1433.6 -614.4 0
v -1536 -716.8 0
v -1638.4 -716.8 0
v -1638.4 -614.4 0
v -1536 -614.4 0
v -819.2 -819.2 0
v -921.6 -819.2 0
v -921.6 -716.8 0
v -819.2 -716.8 0
v -921.6 -819.2 0
v -1024 -819.2 0
v -1024 -716.8 0
v -921.6 -716.8 0
v -1024 -819.2 0
v -1126.4 -819.2 0
v -1126.4 -716.8 0
v -1024 -716.8 0
v -1126.4 -819.2 0
v -1228.8 -819.2 0
v -1228.8 -716.8 0
v -1126.4 -716.8 0
v -1228.8 -819.2 0
v -1331.2 -819.2 0
v -1331.2 -716.8 0
v -1228.8 -716.8 0
v -1331.2 -819.2 0
v -1433.6 -819.2 0
v -1433.6 -716.8 0
v -1331.2 -716.8 0
v -1433.6 -819.2 0
v -1536 -819.2 0
v -1536 -716.8 0
v -1433.6 -716.8 0
v -1536 -819.2 0
v -1638.4 -819.2 0
v -1638.4 -716.8 0
v -1536 -716.8 0
v -819.2 -921.6 0
v -921.6 -921.6 0
v -921.6 -819.2 0
v -819.2 -819.2 0
v -921.6 -921.6 0
v -1024 -921.6 0
v -1024 -819.2 0
v -921.6 -819.2 0
v -1024 -921.6 0
v -1126.4 -921.6 0
v -1126.4 -819.2 0
v -1024 -819.2 0
v -1126.4 -921.6 0
v -1228.8 -921.6 0
v -1228.8 -819.2 0
v -1126.4 -819.2 0
v -1228.8 -921.6 0
v -1331.2 -921.6 0
v -1331.2 -819.2 0
v -1228.8 -819.2 0
v -1331.2 -921.6 0
v -1433.6 -921.6 0
v -1433.6 -819.2 0
v -1331.2 -819.2 0
v -1433.6 -921.6 0
v -1536 -921.6 0
v -1536 -819.2 0
v -1433.6 -819.2 0
v -1536 -921.6 0
v -1638.4 -921.6 0
v -1638.4 -819.2 0
v -1536 -819.2 0
v -819.2 -1024 0
v -921.6 -1024 0
v -921.6 -921.6 0
v -819.2 -921.6 0
v -921.6 -1024 0
v -1024 -1024 0
v -1024 -921.6 0
v -921.6 -921.6 0
v -1024 -1024 0
v -1126.4 -1024 0
v -1126.4 -921.6 0
v -1024 -921.6 0
v -1126.4 -1024 0
v -1228.8 -1024 0
v -1228.8 -921.6 0
v -1126.4 -921.6 0
v -1228.8 -1024 0
v -1331.2 -1024 0
v -1331.2 -921.6 0
v -1228.8 -921.6 0
v -1331.2 -1024 0
v -1433.6 -1024 0
v -1433.6 -921.6 0
v -1331.2 -921.6 0
v -1433.6 -1024 0
v -1536 -1024 0
v -1536 -921.6 0
v -1433.6 -921.6 0
v -1536 -1024 0
v -1638.4 -1024 0
v -1638.4 -921.6 0
v -1536 -921.6 0
v -819.2 -1126.4 0
v -921.6 -1126.4 0
v -921.6 -1024 0
v -819.2 -1024 0
v -921.6 -1126.4 0
v -1024 -1126.4 0
v -1024 -1024 0
v -921.6 -1024 0
v -1024 -1126.4 0
v -1126.4 -1126.4 0
v -1126.4 -1024 0
v -1024 -1024 0
v -1126.4 -1126.4 0
v -1228.8 -1126.4 0
v -1228.8 -1024 0
v -1126.4 -1024 0
v -1228.8 -1126.4 0
v -1331.2 -1126.4 0
v -1331.2 -1024 0
v -1228.8 -1024 0
v -1331.2 -1126.4 0
v -1433.6 -1126.4 0
v -1433.6 -1024 0
v -1331.2 -1024 0
v -1433.6 -1126.4 0
v -1536 -1126.4 0
v -1536 -1024 0
v -1433.6 -1024 0
v -1536 -1126.4 0
v -1638.4 -1126.4 0
v -1638.4 -1024 0
v -1536 -1024 0
v -819.2 -1228.8 0
v -921.6 -1228.8 0
v -921.6 -1126.4 0
v -819.2 -1126.4 0
v -921.6 -1228.8 0
v -1024 -1228.8 0
v -1024 -1126.4 0
v -921.6 -1126.4 0
v -1024 -1228.8 0
v -1126.4 -1228.8 0
v -1126.4 -1126.4 0
v -1024 -1126.4 0
v -1126.4 -1228.8 0
v -1228.8 -1228.8 0
v -1228.8 -1126.4 0
v -1126.4 -1126.4 0
v -1228.8 -1228.8 0
v -1331.2 -1228.8 0
v -1331.2 -1126.4 0
v -1228.8 -1126.4 0
v -1331.2 -1228.8 0
v -1433.6 -1228.8 0
v -1433.6 -1126.4 0
v -1331.2 -1126.4 0
v -1433.6 -1228.8 0
v -1536 -1228.8 0
v -1536 -1126.4 0
v -1433.6 -1126.4 0
v -1536 -1228.8 0
v -1638.4 -1228.8 0
v -1638.4 -1126.4 0
v -1536 -1126.4 0
v -819.2 -1331.2 0
v -921.6 -1331.2 0
v -921.6 -1228.8 0
v -819.2 -1228.8 0
v -921.6 -1331.2 0
v -1024 -1331.2 0
v -1024 -1228.8 0
v -921.6 -1228.8 0
v -1024 -1331.2 0
v -1126.4 -1331.2 0
v -1126.4 -1228.8 0
v -1024 -1228.8 0
v -1126.4 -1331.2 0
v -1228.8 -1331.2 0
v -1228.8 -1228.8 0
v -1126.4 -1228.8 0
v -1228.8 -1331.2 0
v -1331.2 -1331.2 0
v -1331.2 -1228.8 0
v -1228.8 -1228.8 0
v -1331.2 -1331.2 0
v -1433.6 -1331.2 0
v -1433.6 -1228.8 0
v -1331.2 -1228.8 0
v -1433.6 -1331.2 0
v -1536 -1331.2 0
v -1536 -1228.8 0
v -1433.6 -1228.8 0
v -1536 -1331.2 0
v -1638.4 -1331.2 0
v -1638.4 -1228.8 0
v -1536 -1228.8 0
v -819.2 -1433.6 0
v -921.6 -1433.6 0
v -921.6 -1331.2 0
v -819.2 -1331.2 0
v -921.6 -1433.6 0
v -1024 -1433.6 0
v -1024 -1331.2 0
v -921.6 -1331.2 0
v -1024 -1433.6 0
v -1126.4 -1433.6 0
v -1126.4 -1331.2 0
v -1024 -1331.2 0
v -1126.4 -1433.6 0
v -1228.8 -1433.6 0
v -1228.8 -1331.2 0
v -1126.4 -1331.2 0
v -1228.8 -1433.6 0
v -1331.2 -1433.6 0
v -1331.2 -1331.2 0
v -1228.8 -1331.2 0
v -1331.2 -1433.6 0
v -1433.6 -1433.6 0
v -1433.6 -1331.2 0
v -1331.2 -1331.2 0
v -1433.6 -1433.6 0
v -1536 -1433.6 0
v -1536 -1331.2 0
v -1433.6 -1331.2 0
v -1536 -1433.6 0
v -1638.4 -1433.6 0
v -1638.4 -1331.2 0
v -1536 -1331.2 0
v -819.2 -1536 0
v -921.6 -1536 0
v -921.6 -1433.6 0
v -819.2 -1433.6 0
v -921.6 -1536 0
v -1024 -1536 0
v -1024 -1433.6 0
v -921.6 -1433.6 0
v -1024 -1536 0
v -1126.4 -1536 0
v -1126.4 -1433.6 0
v -1024 -1433.6 0
v -1126.4 -1536 0
v -1228.8 -1536 0
v -1228.8 -1433.6 0
v -1126.4 -1433.6 0
v -1228.8 -1536 0
v -1331.2 -1536 0
v -1331.2 -1433.6 0
v -1228.8 -1433.6 0
v -1331.2 -1536 0
v -1433.6 -1536 0
v -1433.6 -1433.6 0
v -1331.2 -1433.6 0
v -1433.6 -1536 0
v -1536 -1536 0
v -1536 -1433.6 0
v -1433.6 -1433.6 0
v -1536 -1536 0
v -1638.4 -1536 0
v -1638.4 -1433.6 0
v -1536 -1433.6 0
v -819.2 -1638.4 0
v -921.6 -1638.4 0
v -921.6 -1536 0
v -819.2 -1536 0
v -921.6 -1638.4 0
v -1024 -1638.4 0
v -1024 -1536 0
v -921.6 -1536 0
v -1024 -1638.4 0
v -1126.4 -1638.4 0
v -1126.4 -1536 0
v -1024 -1536 0
v -1126.4 -1638.4 0
v -1228.8 -1638.4 0
v -1228.8 -1536 0
v -1126.4 -1536 0
v -1228.8 -1638.4 0
v -1331.2 -1638.4 0
v -1331.2 -1536 0
v -1228.8 -1536 0
v -1331.2 -1638.4 0
v -1433.6 -1638.4 0
v -1433.6 -1536 0
v -1331.2 -1536 0
v -1433.6 -1638.4 0
v -1536 -1638.4 0
v -1536 -1536 0
v -1433.6 -1536 0
v -1536 -1638.4 0
v -1638.4 -1638.4 0
v -1638.4 -1536 0
v -1536 -1536 0

# Texture cooridinates (Count = 6)
vt 0.65625 0.6875
vt 0.6875 0.6875
vt 0.6875 0.71875
vt 0.65625 0.71875
vt 0.71875 0.6875
vt 0.71875 0.71875

# Normal
vn 0 0 -1

# Mesh description
g Temple_mesh_0166

# Faces
f 1/1/1 2/2/1 3/3/1 4/4/1
f 5/2/1 6/5/1 7/6/1 8/3/1
f 9/2/1 10/5/1 11/6/1 12/3/1
f 13/2/1 14/5/1 15/6/1 16/3/1
f 17/2/1 18/5/1 19/6/1 20/3/1
f 21/2/1 22/5/1 23/6/1 24/3/1
f 25/2/1 26/5/1 27/6/1 28/3/1
f 29/2/1 30/5/1 31/6/1 32/3/1
f 33/1/1 34/2/1 35/3/1 36/4/1
f 37/2/1 38/5/1 39/6/1 40/3/1
f 41/2/1 42/5/1 43/6/1 44/3/1
f 45/2/1 46/5/1 47/6/1 48/3/1
f 49/2/1 50/5/1 51/6/1 52/3/1
f 53/2/1 54/5/1 55/6/1 56/3/1
f 57/2/1 58/5/1 59/6/1 60/3/1
f 61/2/1 62/5/1 63/6/1 64/3/1
f 65/1/1 66/2/1 67/3/1 68/4/1
f 69/2/1 70/5/1 71/6/1 72/3/1
f 73/2/1 74/5/1 75/6/1 76/3/1
f 77/2/1 78/5/1 79/6/1 80/3/1
f 81/2/1 82/5/1 83/6/1 84/3/1
f 85/2/1 86/5/1 87/6/1 88/3/1
f 89/2/1 90/5/1 91/6/1 92/3/1
f 93/2/1 94/5/1 95/6/1 96/3/1
f 97/1/1 98/2/1 99/3/1 100/4/1
f 101/2/1 102/5/1 103/6/1 104/3/1
f 105/2/1 106/5/1 107/6/1 108/3/1
f 109/2/1 110/5/1 111/6/1 112/3/1
f 113/2/1 114/5/1 115/6/1 116/3/1
f 117/2/1 118/5/1 119/6/1 120/3/1
f 121/2/1 122/5/1 123/6/1 124/3/1
f 125/2/1 126/5/1 127/6/1 128/3/1
f 129/1/1 130/2/1 131/3/1 132/4/1
f 133/2/1 134/5/1 135/6/1 136/3/1
f 137/2/1 138/5/1 139/6/1 140/3/1
f 141/2/1 142/5/1 143/6/1 144/3/1
f 145/2/1 146/5/1 147/6/1 148/3/1
f 149/2/1 150/5/1 151/6/1 152/3/1
f 153/2/1 154/5/1 155/6/1 156/3/1
f 157/2/1 158/5/1 159/6/1 160/3/1
f 161/1/1 162/2/1 163/3/1 164/4/1
f 165/2/1 166/5/1 167/6/1 168/3/1
f 169/2/1 170/5/1 171/6/1 172/3/1
f 173/2/1 174/5/1 175/6/1 176/3/1
f 177/2/1 178/5/1 179/6/1 180/3/1
f 181/2/1 182/5/1 183/6/1 184/3/1
f 185/2/1 186/5/1 187/6/1 188/3/1
f 189/2/1 190/5/1 191/6/1 192/3/1
f 193/1/1 194/2/1 195/3/1 196/4/1
f 197/2/1 198/5/1 199/6/1 200/3/1
f 201/2/1 202/5/1 203/6/1 204/3/1
f 205/2/1 206/5/1 207/6/1 208/3/1
f 209/2/1 210/5/1 211/6/1 212/3/1
f 213/2/1 214/5/1 215/6/1 216/3/1
f 217/2/1 218/5/1 219/6/1 220/3/1
f 221/2/1 222/5/1 223/6/1 224/3/1
f 225/1/1 226/2/1 227/3/1 228/4/1
f 229/2/1 230/5/1 231/6/1 232/3/1
f 233/2/1 234/5/1 235/6/1 236/3/1
f 237/2/1 238/5/1 239/6/1 240/3/1
f 241/2/1 242/5/1 243/6/1 244/3/1
f 245/2/1 246/5/1 247/6/1 248/3/1
f 249/2/1 250/5/1 251/6/1 252/3/1
f 253/2/1 254/5/1 255/6/1 256/3/1
f 257/1/1 258/2/1 259/3/1 260/4/1
f 261/2/1 262/5/1 263/6/1 264/3/1
f 265/2/1 266/5/1 267/6/1 268/3/1
f 269/2/1 270/5/1 271/6/1 272/3/1
f 273/2/1 274/5/1 275/6/1 276/3/1
f 277/2/1 278/5/1 279/6/1 280/3/1
f 281/2/1 282/5/1 283/6/1 284/3/1
f 285/2/1 286/5/1 287/6/1 288/3/1
f 289/1/1 290/2/1 291/3/1 292/4/1
f 293/2/1 294/5/1 295/6/1 296/3/1
f 297/2/1 298/5/1 299/6/1 300/3/1
f 301/2/1 302/5/1 303/6/1 304/3/1
f 305/2/1 306/5/1 307/6/1 308/3/1
f 309/2/1 310/5/1 311/6/1 312/3/1
f 313/2/1 314/5/1 315/6/1 316/3/1
f 317/2/1 318/5/1 319/6/1 320/3/1
f 321/1/1 322/2/1 323/3/1 324/4/1
f 325/2/1 326/5/1 327/6/1 328/3/1
f 329/2/1 330/5/1 331/6/1 332/3/1
f 333/2/1 334/5/1 335/6/1 336/3/1
f 337/2/1 338/5/1 339/6/1 340/3/1
f 341/2/1 342/5/1 343/6/1 344/3/1
f 345/2/1 346/5/1 347/6/1 348/3/1
f 349/2/1 350/5/1 351/6/1 352/3/1
f 353/1/1 354/2/1 355/3/1 356/4/1
f 357/2/1 358/5/1 359/6/1 360/3/1
f 361/2/1 362/5/1 363/6/1 364/3/1
f 365/2/1 366/5/1 367/6/1 368/3/1
f 369/2/1 370/5/1 371/6/1 372/3/1
f 373/2/1 374/5/1 375/6/1 376/3/1
f 377/2/1 378/5/1 379/6/1 380/3/1
f 381/2/1 382/5/1 383/6/1 384/3/1
f 385/1/1 386/2/1 387/3/1 388/4/1
f 389/2/1 390/5/1 391/6/1 392/3/1
f 393/2/1 394/5/1 395/6/1 396/3/1
f 397/2/1 398/5/1 399/6/1 400/3/1
f 401/2/1 402/5/1 403/6/1 404/3/1
f 405/2/1 406/5/1 407/6/1 408/3/1
f 409/2/1 410/5/1 411/6/1 412/3/1
f 413/2/1 414/5/1 415/6/1 416/3/1
f 417/1/1 418/2/1 419/3/1 420/4/1
f 421/2/1 422/5/1 423/6/1 424/3/1
f 425/2/1 426/5/1 427/6/1 428/3/1
f 429/2/1 430/5/1 431/6/1 432/3/1
f 433/2/1 434/5/1 435/6/1 436/3/1
f 437/2/1 438/5/1 439/6/1 440/3/1
f 441/2/1 442/5/1 443/6/1 444/3/1
f 445/2/1 446/5/1 447/6/1 448/3/1
f 449/1/1 450/2/1 451/3/1 452/4/1
f 453/2/1 454/5/1 455/6/1 456/3/1
f 457/2/1 458/5/1 459/6/1 460/3/1
f 461/2/1 462/5/1 463/6/1 464/3/1
f 465/2/1 466/5/1 467/6/1 468/3/1
f 469/2/1 470/5/1 471/6/1 472/3/1
f 473/2/1 474/5/1 475/6/1 476/3/1
f 477/2/1 478/5/1 479/6/1 480/3/1
f 481/1/1 482/2/1 483/3/1 484/4/1
f 485/2/1 486/5/1 487/6/1 488/3/1
f 489/2/1 490/5/1 491/6/1 492/3/1
f 493/2/1 494/5/1 495/6/1 496/3/1
f 497/2/1 498/5/1 499/6/1 500/3/1
f 501/2/1 502/5/1 503/6/1 504/3/1
f 505/2/1 506/5/1 507/6/1 508/3/1
f 509/2/1 510/5/1 511/6/1 512/3/1

