# Tiled2Unity generated file. Do not modify by hand.
# Wavefront file for 'Temple_mesh_0034.obj'

# Vertices (Count = 16)
v -409.6 -614.4 0
v -512 -614.4 0
v -512 -512 0
v -409.6 -512 0
v -1228.8 -921.6 0
v -1331.2 -921.6 0
v -1331.2 -819.2 0
v -1228.8 -819.2 0
v -512 -1228.8 0
v -614.4 -1228.8 0
v -614.4 -1126.4 0
v -512 -1126.4 0
v -921.6 -1638.4 0
v -1024 -1638.4 0
v -1024 -1536 0
v -921.6 -1536 0

# Texture cooridinates (Count = 6)
vt 0.3125 0.53125
vt 0.34375 0.53125
vt 0.34375 0.5625
vt 0.3125 0.5625
vt 0.375 0.53125
vt 0.375 0.5625

# Normal
vn 0 0 -1

# Mesh description
g Temple_mesh_0034

# Faces
f 1/1/1 2/2/1 3/3/1 4/4/1
f 5/2/1 6/5/1 7/6/1 8/3/1
f 9/2/1 10/5/1 11/6/1 12/3/1
f 13/2/1 14/5/1 15/6/1 16/3/1

