# Tiled2Unity generated file. Do not modify by hand.
# Wavefront file for 'Temple_mesh_0023.obj'

# Vertices (Count = 40)
v 0 -1536 0
v -102.4 -1536 0
v -102.4 -1433.6 0
v 0 -1433.6 0
v -102.4 -1536 0
v -204.8 -1536 0
v -204.8 -1433.6 0
v -102.4 -1433.6 0
v -204.8 -1536 0
v -307.2 -1536 0
v -307.2 -1433.6 0
v -204.8 -1433.6 0
v -921.6 -1536 0
v -1024 -1536 0
v -1024 -1433.6 0
v -921.6 -1433.6 0
v -1024 -1536 0
v -1126.4 -1536 0
v -1126.4 -1433.6 0
v -1024 -1433.6 0
v -1126.4 -1536 0
v -1228.8 -1536 0
v -1228.8 -1433.6 0
v -1126.4 -1433.6 0
v -1228.8 -1536 0
v -1331.2 -1536 0
v -1331.2 -1433.6 0
v -1228.8 -1433.6 0
v -1331.2 -1536 0
v -1433.6 -1536 0
v -1433.6 -1433.6 0
v -1331.2 -1433.6 0
v -1433.6 -1536 0
v -1536 -1536 0
v -1536 -1433.6 0
v -1433.6 -1433.6 0
v -1536 -1536 0
v -1638.4 -1536 0
v -1638.4 -1433.6 0
v -1536 -1433.6 0

# Texture cooridinates (Count = 6)
vt 0.6875 0.1875
vt 0.65625 0.1875
vt 0.65625 0.15625
vt 0.6875 0.15625
vt 0.625 0.1875
vt 0.625 0.15625

# Normal
vn 0 0 -1

# Mesh description
g Temple_mesh_0023

# Faces
f 1/1/1 2/2/1 3/3/1 4/4/1
f 5/1/1 6/2/1 7/3/1 8/4/1
f 9/2/1 10/5/1 11/6/1 12/3/1
f 13/5/1 14/2/1 15/3/1 16/6/1
f 17/2/1 18/1/1 19/4/1 20/3/1
f 21/2/1 22/1/1 23/4/1 24/3/1
f 25/2/1 26/1/1 27/4/1 28/3/1
f 29/2/1 30/1/1 31/4/1 32/3/1
f 33/2/1 34/1/1 35/4/1 36/3/1
f 37/2/1 38/1/1 39/4/1 40/3/1

