# Tiled2Unity generated file. Do not modify by hand.
# Wavefront file for 'Temple_mesh_0011.obj'

# Vertices (Count = 24)
v -307.2 -1024 0
v -409.6 -1024 0
v -409.6 -921.6 0
v -307.2 -921.6 0
v -307.2 -1126.4 0
v -409.6 -1126.4 0
v -409.6 -1024 0
v -307.2 -1024 0
v -307.2 -1228.8 0
v -409.6 -1228.8 0
v -409.6 -1126.4 0
v -307.2 -1126.4 0
v -307.2 -1331.2 0
v -409.6 -1331.2 0
v -409.6 -1228.8 0
v -307.2 -1228.8 0
v -307.2 -1433.6 0
v -409.6 -1433.6 0
v -409.6 -1331.2 0
v -307.2 -1331.2 0
v -307.2 -1536 0
v -409.6 -1536 0
v -409.6 -1433.6 0
v -307.2 -1433.6 0

# Texture cooridinates (Count = 6)
vt 0.625 0.0625
vt 0.65625 0.0625
vt 0.65625 0.09375
vt 0.625 0.09375
vt 0.625 0.03125
vt 0.65625 0.03125

# Normal
vn 0 0 -1

# Mesh description
g Temple_mesh_0011

# Faces
f 1/1/1 2/2/1 3/3/1 4/4/1
f 5/5/1 6/6/1 7/2/1 8/1/1
f 9/1/1 10/2/1 11/3/1 12/4/1
f 13/1/1 14/2/1 15/3/1 16/4/1
f 17/1/1 18/2/1 19/3/1 20/4/1
f 21/5/1 22/6/1 23/2/1 24/1/1

