# Tiled2Unity generated file. Do not modify by hand.
# Wavefront file for 'Temple_mesh_0472.obj'

# Vertices (Count = 8)
v -512 -307.2 0
v -614.4 -307.2 0
v -614.4 -204.8 0
v -512 -204.8 0
v -204.8 -921.6 0
v -307.2 -921.6 0
v -307.2 -819.2 0
v -204.8 -819.2 0

# Texture cooridinates (Count = 8)
vt 0.34375 0.21875
vt 0.375 0.21875
vt 0.375 0.25
vt 0.34375 0.25
vt 0.28125 0.125
vt 0.3125 0.125
vt 0.3125 0.15625
vt 0.28125 0.15625

# Normal
vn 0 0 -1

# Mesh description
g Temple_mesh_0472

# Faces
f 1/1/1 2/2/1 3/3/1 4/4/1
f 5/5/1 6/6/1 7/7/1 8/8/1

