# Tiled2Unity generated file. Do not modify by hand.
# Wavefront file for 'Temple_mesh_0407.obj'

# Vertices (Count = 8)
v -512 -409.6 0
v -614.4 -409.6 0
v -614.4 -307.2 0
v -512 -307.2 0
v -1433.6 -1331.2 0
v -1536 -1331.2 0
v -1536 -1228.8 0
v -1433.6 -1228.8 0

# Texture cooridinates (Count = 6)
vt 0.3125 0.1875
vt 0.34375 0.1875
vt 0.34375 0.21875
vt 0.3125 0.21875
vt 0.375 0.1875
vt 0.375 0.21875

# Normal
vn 0 0 -1

# Mesh description
g Temple_mesh_0407

# Faces
f 1/1/1 2/2/1 3/3/1 4/4/1
f 5/2/1 6/5/1 7/6/1 8/3/1

