# Tiled2Unity generated file. Do not modify by hand.
# Wavefront file for 'Temple_mesh_0670.obj'

# Vertices (Count = 132)
v 0 -1126.4 0
v -102.4 -1126.4 0
v -102.4 -1024 0
v 0 -1024 0
v -102.4 -1126.4 0
v -204.8 -1126.4 0
v -204.8 -1024 0
v -102.4 -1024 0
v -204.8 -1126.4 0
v -307.2 -1126.4 0
v -307.2 -1024 0
v -204.8 -1024 0
v -307.2 -1126.4 0
v -409.6 -1126.4 0
v -409.6 -1024 0
v -307.2 -1024 0
v -409.6 -1126.4 0
v -512 -1126.4 0
v -512 -1024 0
v -409.6 -1024 0
v -512 -1126.4 0
v -614.4 -1126.4 0
v -614.4 -1024 0
v -512 -1024 0
v -614.4 -1126.4 0
v -716.8 -1126.4 0
v -716.8 -1024 0
v -614.4 -1024 0
v -716.8 -1126.4 0
v -819.2 -1126.4 0
v -819.2 -1024 0
v -716.8 -1024 0
v -819.2 -1126.4 0
v -921.6 -1126.4 0
v -921.6 -1024 0
v -819.2 -1024 0
v -921.6 -1126.4 0
v -1024 -1126.4 0
v -1024 -1024 0
v -921.6 -1024 0
v -1024 -1126.4 0
v -1126.4 -1126.4 0
v -1126.4 -1024 0
v -1024 -1024 0
v 0 -1228.8 0
v -102.4 -1228.8 0
v -102.4 -1126.4 0
v 0 -1126.4 0
v -102.4 -1228.8 0
v -204.8 -1228.8 0
v -204.8 -1126.4 0
v -102.4 -1126.4 0
v -204.8 -1228.8 0
v -307.2 -1228.8 0
v -307.2 -1126.4 0
v -204.8 -1126.4 0
v -307.2 -1228.8 0
v -409.6 -1228.8 0
v -409.6 -1126.4 0
v -307.2 -1126.4 0
v -409.6 -1228.8 0
v -512 -1228.8 0
v -512 -1126.4 0
v -409.6 -1126.4 0
v -512 -1228.8 0
v -614.4 -1228.8 0
v -614.4 -1126.4 0
v -512 -1126.4 0
v -614.4 -1228.8 0
v -716.8 -1228.8 0
v -716.8 -1126.4 0
v -614.4 -1126.4 0
v -716.8 -1228.8 0
v -819.2 -1228.8 0
v -819.2 -1126.4 0
v -716.8 -1126.4 0
v -819.2 -1228.8 0
v -921.6 -1228.8 0
v -921.6 -1126.4 0
v -819.2 -1126.4 0
v -921.6 -1228.8 0
v -1024 -1228.8 0
v -1024 -1126.4 0
v -921.6 -1126.4 0
v -1024 -1228.8 0
v -1126.4 -1228.8 0
v -1126.4 -1126.4 0
v -1024 -1126.4 0
v 0 -1331.2 0
v -102.4 -1331.2 0
v -102.4 -1228.8 0
v 0 -1228.8 0
v -102.4 -1331.2 0
v -204.8 -1331.2 0
v -204.8 -1228.8 0
v -102.4 -1228.8 0
v -204.8 -1331.2 0
v -307.2 -1331.2 0
v -307.2 -1228.8 0
v -204.8 -1228.8 0
v -307.2 -1331.2 0
v -409.6 -1331.2 0
v -409.6 -1228.8 0
v -307.2 -1228.8 0
v -409.6 -1331.2 0
v -512 -1331.2 0
v -512 -1228.8 0
v -409.6 -1228.8 0
v -512 -1331.2 0
v -614.4 -1331.2 0
v -614.4 -1228.8 0
v -512 -1228.8 0
v -614.4 -1331.2 0
v -716.8 -1331.2 0
v -716.8 -1228.8 0
v -614.4 -1228.8 0
v -716.8 -1331.2 0
v -819.2 -1331.2 0
v -819.2 -1228.8 0
v -716.8 -1228.8 0
v -819.2 -1331.2 0
v -921.6 -1331.2 0
v -921.6 -1228.8 0
v -819.2 -1228.8 0
v -921.6 -1331.2 0
v -1024 -1331.2 0
v -1024 -1228.8 0
v -921.6 -1228.8 0
v -1024 -1331.2 0
v -1126.4 -1331.2 0
v -1126.4 -1228.8 0
v -1024 -1228.8 0

# Texture cooridinates (Count = 31)
vt 0.78125 0.5
vt 0.8125 0.5
vt 0.8125 0.53125
vt 0.78125 0.53125
vt 0.84375 0.5
vt 0.84375 0.53125
vt 0.75 0.5
vt 0.75 0.53125
vt 0.84375 0.59375
vt 0.875 0.59375
vt 0.875 0.625
vt 0.84375 0.625
vt 0.90625 0.59375
vt 0.90625 0.625
vt 0.9375 0.59375
vt 0.9375 0.625
vt 0.78125 0.46875
vt 0.8125 0.46875
vt 0.84375 0.46875
vt 0.75 0.46875
vt 0.84375 0.5625
vt 0.875 0.5625
vt 0.90625 0.5625
vt 0.9375 0.5625
vt 0.78125 0.4375
vt 0.8125 0.4375
vt 0.84375 0.4375
vt 0.75 0.4375
vt 0.875 0.53125
vt 0.90625 0.53125
vt 0.9375 0.53125

# Normal
vn 0 0 -1

# Mesh description
g Temple_mesh_0670

# Faces
f 1/1/1 2/2/1 3/3/1 4/4/1
f 5/2/1 6/5/1 7/6/1 8/3/1
f 9/7/1 10/1/1 11/4/1 12/8/1
f 13/1/1 14/2/1 15/3/1 16/4/1
f 17/2/1 18/5/1 19/6/1 20/3/1
f 21/9/1 22/10/1 23/11/1 24/12/1
f 25/10/1 26/13/1 27/14/1 28/11/1
f 29/13/1 30/15/1 31/16/1 32/14/1
f 33/7/1 34/1/1 35/4/1 36/8/1
f 37/1/1 38/2/1 39/3/1 40/4/1
f 41/2/1 42/5/1 43/6/1 44/3/1
f 45/17/1 46/18/1 47/2/1 48/1/1
f 49/18/1 50/19/1 51/5/1 52/2/1
f 53/20/1 54/17/1 55/1/1 56/7/1
f 57/17/1 58/18/1 59/2/1 60/1/1
f 61/18/1 62/19/1 63/5/1 64/2/1
f 65/21/1 66/22/1 67/10/1 68/9/1
f 69/22/1 70/23/1 71/13/1 72/10/1
f 73/23/1 74/24/1 75/15/1 76/13/1
f 77/20/1 78/17/1 79/1/1 80/7/1
f 81/17/1 82/18/1 83/2/1 84/1/1
f 85/18/1 86/19/1 87/5/1 88/2/1
f 89/25/1 90/26/1 91/18/1 92/17/1
f 93/26/1 94/27/1 95/19/1 96/18/1
f 97/28/1 98/25/1 99/17/1 100/20/1
f 101/25/1 102/26/1 103/18/1 104/17/1
f 105/26/1 106/27/1 107/19/1 108/18/1
f 109/6/1 110/29/1 111/22/1 112/21/1
f 113/29/1 114/30/1 115/23/1 116/22/1
f 117/30/1 118/31/1 119/24/1 120/23/1
f 121/28/1 122/25/1 123/17/1 124/20/1
f 125/25/1 126/26/1 127/18/1 128/17/1
f 129/26/1 130/27/1 131/19/1 132/18/1

