# Tiled2Unity generated file. Do not modify by hand.
# Wavefront file for 'Temple_mesh_0002.obj'

# Vertices (Count = 44)
v 0 -409.6 0
v -102.4 -409.6 0
v -102.4 -307.2 0
v 0 -307.2 0
v -102.4 -409.6 0
v -204.8 -409.6 0
v -204.8 -307.2 0
v -102.4 -307.2 0
v -204.8 -409.6 0
v -307.2 -409.6 0
v -307.2 -307.2 0
v -204.8 -307.2 0
v -307.2 -409.6 0
v -409.6 -409.6 0
v -409.6 -307.2 0
v -307.2 -307.2 0
v -307.2 -512 0
v -409.6 -512 0
v -409.6 -409.6 0
v -307.2 -409.6 0
v -307.2 -614.4 0
v -409.6 -614.4 0
v -409.6 -512 0
v -307.2 -512 0
v -307.2 -716.8 0
v -409.6 -716.8 0
v -409.6 -614.4 0
v -307.2 -614.4 0
v -307.2 -819.2 0
v -409.6 -819.2 0
v -409.6 -716.8 0
v -307.2 -716.8 0
v -307.2 -921.6 0
v -409.6 -921.6 0
v -409.6 -819.2 0
v -307.2 -819.2 0
v -409.6 -1024 0
v -512 -1024 0
v -512 -921.6 0
v -409.6 -921.6 0
v -716.8 -1024 0
v -819.2 -1024 0
v -819.2 -921.6 0
v -716.8 -921.6 0

# Texture cooridinates (Count = 7)
vt 0.96875 0.1875
vt 1 0.1875
vt 1 0.21875
vt 0.96875 0.21875
vt 0.9375 0.15625
vt 0.96875 0.15625
vt 0.9375 0.1875

# Normal
vn 0 0 -1

# Mesh description
g Temple_mesh_0002

# Faces
f 1/1/1 2/2/1 3/3/1 4/4/1
f 5/1/1 6/2/1 7/3/1 8/4/1
f 9/1/1 10/2/1 11/3/1 12/4/1
f 13/5/1 14/6/1 15/1/1 16/7/1
f 17/5/1 18/6/1 19/1/1 20/7/1
f 21/5/1 22/6/1 23/1/1 24/7/1
f 25/5/1 26/6/1 27/1/1 28/7/1
f 29/5/1 30/6/1 31/1/1 32/7/1
f 33/5/1 34/6/1 35/1/1 36/7/1
f 37/1/1 38/2/1 39/3/1 40/4/1
f 41/1/1 42/2/1 43/3/1 44/4/1

