# Tiled2Unity generated file. Do not modify by hand.
# Wavefront file for 'Temple_mesh_0669.obj'

# Vertices (Count = 120)
v -614.4 -1126.4 0
v -716.8 -1126.4 0
v -716.8 -1024 0
v -614.4 -1024 0
v -716.8 -1126.4 0
v -819.2 -1126.4 0
v -819.2 -1024 0
v -716.8 -1024 0
v -819.2 -1126.4 0
v -921.6 -1126.4 0
v -921.6 -1024 0
v -819.2 -1024 0
v -921.6 -1126.4 0
v -1024 -1126.4 0
v -1024 -1024 0
v -921.6 -1024 0
v -1024 -1126.4 0
v -1126.4 -1126.4 0
v -1126.4 -1024 0
v -1024 -1024 0
v -1126.4 -1126.4 0
v -1228.8 -1126.4 0
v -1228.8 -1024 0
v -1126.4 -1024 0
v -1228.8 -1126.4 0
v -1331.2 -1126.4 0
v -1331.2 -1024 0
v -1228.8 -1024 0
v -1331.2 -1126.4 0
v -1433.6 -1126.4 0
v -1433.6 -1024 0
v -1331.2 -1024 0
v -1433.6 -1126.4 0
v -1536 -1126.4 0
v -1536 -1024 0
v -1433.6 -1024 0
v -1536 -1126.4 0
v -1638.4 -1126.4 0
v -1638.4 -1024 0
v -1536 -1024 0
v -614.4 -1228.8 0
v -716.8 -1228.8 0
v -716.8 -1126.4 0
v -614.4 -1126.4 0
v -716.8 -1228.8 0
v -819.2 -1228.8 0
v -819.2 -1126.4 0
v -716.8 -1126.4 0
v -819.2 -1228.8 0
v -921.6 -1228.8 0
v -921.6 -1126.4 0
v -819.2 -1126.4 0
v -921.6 -1228.8 0
v -1024 -1228.8 0
v -1024 -1126.4 0
v -921.6 -1126.4 0
v -1024 -1228.8 0
v -1126.4 -1228.8 0
v -1126.4 -1126.4 0
v -1024 -1126.4 0
v -1126.4 -1228.8 0
v -1228.8 -1228.8 0
v -1228.8 -1126.4 0
v -1126.4 -1126.4 0
v -1228.8 -1228.8 0
v -1331.2 -1228.8 0
v -1331.2 -1126.4 0
v -1228.8 -1126.4 0
v -1331.2 -1228.8 0
v -1433.6 -1228.8 0
v -1433.6 -1126.4 0
v -1331.2 -1126.4 0
v -1433.6 -1228.8 0
v -1536 -1228.8 0
v -1536 -1126.4 0
v -1433.6 -1126.4 0
v -1536 -1228.8 0
v -1638.4 -1228.8 0
v -1638.4 -1126.4 0
v -1536 -1126.4 0
v -614.4 -1331.2 0
v -716.8 -1331.2 0
v -716.8 -1228.8 0
v -614.4 -1228.8 0
v -716.8 -1331.2 0
v -819.2 -1331.2 0
v -819.2 -1228.8 0
v -716.8 -1228.8 0
v -819.2 -1331.2 0
v -921.6 -1331.2 0
v -921.6 -1228.8 0
v -819.2 -1228.8 0
v -921.6 -1331.2 0
v -1024 -1331.2 0
v -1024 -1228.8 0
v -921.6 -1228.8 0
v -1024 -1331.2 0
v -1126.4 -1331.2 0
v -1126.4 -1228.8 0
v -1024 -1228.8 0
v -1126.4 -1331.2 0
v -1228.8 -1331.2 0
v -1228.8 -1228.8 0
v -1126.4 -1228.8 0
v -1228.8 -1331.2 0
v -1331.2 -1331.2 0
v -1331.2 -1228.8 0
v -1228.8 -1228.8 0
v -1331.2 -1331.2 0
v -1433.6 -1331.2 0
v -1433.6 -1228.8 0
v -1331.2 -1228.8 0
v -1433.6 -1331.2 0
v -1536 -1331.2 0
v -1536 -1228.8 0
v -1433.6 -1228.8 0
v -1536 -1331.2 0
v -1638.4 -1331.2 0
v -1638.4 -1228.8 0
v -1536 -1228.8 0

# Texture cooridinates (Count = 31)
vt 0.84375 0.59375
vt 0.875 0.59375
vt 0.875 0.625
vt 0.84375 0.625
vt 0.90625 0.59375
vt 0.90625 0.625
vt 0.9375 0.59375
vt 0.9375 0.625
vt 0.75 0.5
vt 0.78125 0.5
vt 0.78125 0.53125
vt 0.75 0.53125
vt 0.8125 0.5
vt 0.8125 0.53125
vt 0.84375 0.5
vt 0.84375 0.53125
vt 0.84375 0.5625
vt 0.875 0.5625
vt 0.90625 0.5625
vt 0.9375 0.5625
vt 0.75 0.46875
vt 0.78125 0.46875
vt 0.8125 0.46875
vt 0.84375 0.46875
vt 0.875 0.53125
vt 0.90625 0.53125
vt 0.9375 0.53125
vt 0.75 0.4375
vt 0.78125 0.4375
vt 0.8125 0.4375
vt 0.84375 0.4375

# Normal
vn 0 0 -1

# Mesh description
g Temple_mesh_0669

# Faces
f 1/1/1 2/2/1 3/3/1 4/4/1
f 5/2/1 6/5/1 7/6/1 8/3/1
f 9/5/1 10/7/1 11/8/1 12/6/1
f 13/9/1 14/10/1 15/11/1 16/12/1
f 17/10/1 18/13/1 19/14/1 20/11/1
f 21/13/1 22/15/1 23/16/1 24/14/1
f 25/1/1 26/2/1 27/3/1 28/4/1
f 29/2/1 30/5/1 31/6/1 32/3/1
f 33/5/1 34/7/1 35/8/1 36/6/1
f 37/9/1 38/10/1 39/11/1 40/12/1
f 41/17/1 42/18/1 43/2/1 44/1/1
f 45/18/1 46/19/1 47/5/1 48/2/1
f 49/19/1 50/20/1 51/7/1 52/5/1
f 53/21/1 54/22/1 55/10/1 56/9/1
f 57/22/1 58/23/1 59/13/1 60/10/1
f 61/23/1 62/24/1 63/15/1 64/13/1
f 65/17/1 66/18/1 67/2/1 68/1/1
f 69/18/1 70/19/1 71/5/1 72/2/1
f 73/19/1 74/20/1 75/7/1 76/5/1
f 77/21/1 78/22/1 79/10/1 80/9/1
f 81/16/1 82/25/1 83/18/1 84/17/1
f 85/25/1 86/26/1 87/19/1 88/18/1
f 89/26/1 90/27/1 91/20/1 92/19/1
f 93/28/1 94/29/1 95/22/1 96/21/1
f 97/29/1 98/30/1 99/23/1 100/22/1
f 101/30/1 102/31/1 103/24/1 104/23/1
f 105/16/1 106/25/1 107/18/1 108/17/1
f 109/25/1 110/26/1 111/19/1 112/18/1
f 113/26/1 114/27/1 115/20/1 116/19/1
f 117/28/1 118/29/1 119/22/1 120/21/1

