# Tiled2Unity generated file. Do not modify by hand.
# Wavefront file for 'Temple_mesh_0318.obj'

# Vertices (Count = 12)
v -409.6 -102.4 0
v -512 -102.4 0
v -512 0 0
v -409.6 0 0
v -512 -102.4 0
v -614.4 -102.4 0
v -614.4 0 0
v -512 0 0
v -614.4 -102.4 0
v -716.8 -102.4 0
v -716.8 0 0
v -614.4 0 0

# Texture cooridinates (Count = 8)
vt 0.78125 0.3125
vt 0.8125 0.3125
vt 0.8125 0.34375
vt 0.78125 0.34375
vt 0.84375 0.3125
vt 0.84375 0.34375
vt 0.875 0.3125
vt 0.875 0.34375

# Normal
vn 0 0 -1

# Mesh description
g Temple_mesh_0318

# Faces
f 1/1/1 2/2/1 3/3/1 4/4/1
f 5/2/1 6/5/1 7/6/1 8/3/1
f 9/5/1 10/7/1 11/8/1 12/6/1

