# Tiled2Unity generated file. Do not modify by hand.
# Wavefront file for 'Temple_mesh_0010.obj'

# Vertices (Count = 96)
v -307.2 -1126.4 0
v -409.6 -1126.4 0
v -409.6 -1024 0
v -307.2 -1024 0
v -409.6 -1126.4 0
v -512 -1126.4 0
v -512 -1024 0
v -409.6 -1024 0
v -512 -1126.4 0
v -614.4 -1126.4 0
v -614.4 -1024 0
v -512 -1024 0
v -614.4 -1126.4 0
v -716.8 -1126.4 0
v -716.8 -1024 0
v -614.4 -1024 0
v -716.8 -1126.4 0
v -819.2 -1126.4 0
v -819.2 -1024 0
v -716.8 -1024 0
v -819.2 -1126.4 0
v -921.6 -1126.4 0
v -921.6 -1024 0
v -819.2 -1024 0
v -307.2 -1228.8 0
v -409.6 -1228.8 0
v -409.6 -1126.4 0
v -307.2 -1126.4 0
v -409.6 -1228.8 0
v -512 -1228.8 0
v -512 -1126.4 0
v -409.6 -1126.4 0
v -512 -1228.8 0
v -614.4 -1228.8 0
v -614.4 -1126.4 0
v -512 -1126.4 0
v -614.4 -1228.8 0
v -716.8 -1228.8 0
v -716.8 -1126.4 0
v -614.4 -1126.4 0
v -716.8 -1228.8 0
v -819.2 -1228.8 0
v -819.2 -1126.4 0
v -716.8 -1126.4 0
v -819.2 -1228.8 0
v -921.6 -1228.8 0
v -921.6 -1126.4 0
v -819.2 -1126.4 0
v -307.2 -1331.2 0
v -409.6 -1331.2 0
v -409.6 -1228.8 0
v -307.2 -1228.8 0
v -409.6 -1331.2 0
v -512 -1331.2 0
v -512 -1228.8 0
v -409.6 -1228.8 0
v -716.8 -1331.2 0
v -819.2 -1331.2 0
v -819.2 -1228.8 0
v -716.8 -1228.8 0
v -819.2 -1331.2 0
v -921.6 -1331.2 0
v -921.6 -1228.8 0
v -819.2 -1228.8 0
v -307.2 -1433.6 0
v -409.6 -1433.6 0
v -409.6 -1331.2 0
v -307.2 -1331.2 0
v -409.6 -1433.6 0
v -512 -1433.6 0
v -512 -1331.2 0
v -409.6 -1331.2 0
v -716.8 -1433.6 0
v -819.2 -1433.6 0
v -819.2 -1331.2 0
v -716.8 -1331.2 0
v -819.2 -1433.6 0
v -921.6 -1433.6 0
v -921.6 -1331.2 0
v -819.2 -1331.2 0
v -307.2 -1536 0
v -409.6 -1536 0
v -409.6 -1433.6 0
v -307.2 -1433.6 0
v -409.6 -1536 0
v -512 -1536 0
v -512 -1433.6 0
v -409.6 -1433.6 0
v -716.8 -1536 0
v -819.2 -1536 0
v -819.2 -1433.6 0
v -716.8 -1433.6 0
v -819.2 -1536 0
v -921.6 -1536 0
v -921.6 -1433.6 0
v -819.2 -1433.6 0

# Texture cooridinates (Count = 33)
vt 0.625 0.1875
vt 0.625 0.15625
vt 0.59375 0.15625
vt 0.59375 0.1875
vt 0.625 0.125
vt 0.59375 0.125
vt 0.125 0.09375
vt 0.15625 0.09375
vt 0.15625 0.125
vt 0.125 0.125
vt 0.375 0.09375
vt 0.40625 0.09375
vt 0.40625 0.125
vt 0.375 0.125
vt 0.1875 0.09375
vt 0.1875 0.125
vt 0.21875 0.09375
vt 0.21875 0.125
vt 0.46875 0.09375
vt 0.5 0.09375
vt 0.5 0.125
vt 0.46875 0.125
vt 0.125 0.0625
vt 0.15625 0.0625
vt 0.65625 0.15625
vt 0.65625 0.1875
vt 0.125 0.03125
vt 0.15625 0.03125
vt 0.65625 0.125
vt 0.125 0
vt 0.15625 0
vt 0.625 0.09375
vt 0.65625 0.09375

# Normal
vn 0 0 -1

# Mesh description
g Temple_mesh_0010

# Faces
f 1/1/1 2/2/1 3/3/1 4/4/1
f 5/5/1 6/2/1 7/3/1 8/6/1
f 9/5/1 10/2/1 11/3/1 12/6/1
f 13/5/1 14/2/1 15/3/1 16/6/1
f 17/5/1 18/2/1 19/3/1 20/6/1
f 21/2/1 22/1/1 23/4/1 24/3/1
f 25/7/1 26/8/1 27/9/1 28/10/1
f 29/11/1 30/12/1 31/13/1 32/14/1
f 33/8/1 34/15/1 35/16/1 36/9/1
f 37/15/1 38/17/1 39/18/1 40/16/1
f 41/19/1 42/20/1 43/21/1 44/22/1
f 45/7/1 46/8/1 47/9/1 48/10/1
f 49/23/1 50/24/1 51/8/1 52/7/1
f 53/2/1 54/25/1 55/26/1 56/1/1
f 57/25/1 58/2/1 59/1/1 60/26/1
f 61/23/1 62/24/1 63/8/1 64/7/1
f 65/27/1 66/28/1 67/24/1 68/23/1
f 69/5/1 70/29/1 71/25/1 72/2/1
f 73/29/1 74/5/1 75/2/1 76/25/1
f 77/27/1 78/28/1 79/24/1 80/23/1
f 81/30/1 82/31/1 83/28/1 84/27/1
f 85/32/1 86/33/1 87/29/1 88/5/1
f 89/33/1 90/32/1 91/5/1 92/29/1
f 93/30/1 94/31/1 95/28/1 96/27/1

