# Tiled2Unity generated file. Do not modify by hand.
# Wavefront file for 'Temple_mesh_0452.obj'

# Vertices (Count = 12)
v -1126.4 -204.8 0
v -1228.8 -204.8 0
v -1228.8 -102.4 0
v -1126.4 -102.4 0
v -1228.8 -204.8 0
v -1331.2 -204.8 0
v -1331.2 -102.4 0
v -1228.8 -102.4 0
v -102.4 -1126.4 0
v -204.8 -1126.4 0
v -204.8 -1024 0
v -102.4 -1024 0

# Texture cooridinates (Count = 11)
vt 0.28125 0.1875
vt 0.3125 0.1875
vt 0.3125 0.21875
vt 0.28125 0.21875
vt 0.34375 0.21875
vt 0.375 0.21875
vt 0.375 0.25
vt 0.34375 0.25
vt 0.3125 0.15625
vt 0.34375 0.15625
vt 0.34375 0.1875

# Normal
vn 0 0 -1

# Mesh description
g Temple_mesh_0452

# Faces
f 1/1/1 2/2/1 3/3/1 4/4/1
f 5/5/1 6/6/1 7/7/1 8/8/1
f 9/9/1 10/10/1 11/11/1 12/2/1

