# Tiled2Unity generated file. Do not modify by hand.
# Wavefront file for 'Temple_mesh_0643.obj'

# Vertices (Count = 12)
v -307.2 -409.6 0
v -409.6 -409.6 0
v -409.6 -307.2 0
v -307.2 -307.2 0
v -204.8 -512 0
v -307.2 -512 0
v -307.2 -409.6 0
v -204.8 -409.6 0
v -1228.8 -1331.2 0
v -1331.2 -1331.2 0
v -1331.2 -1228.8 0
v -1228.8 -1228.8 0

# Texture cooridinates (Count = 12)
vt 0.71875 0.3125
vt 0.75 0.3125
vt 0.75 0.34375
vt 0.71875 0.34375
vt 0.84375 0.1875
vt 0.875 0.1875
vt 0.875 0.21875
vt 0.84375 0.21875
vt 0.90625 0.1875
vt 0.9375 0.1875
vt 0.9375 0.21875
vt 0.90625 0.21875

# Normal
vn 0 0 -1

# Mesh description
g Temple_mesh_0643

# Faces
f 1/1/1 2/2/1 3/3/1 4/4/1
f 5/5/1 6/6/1 7/7/1 8/8/1
f 9/9/1 10/10/1 11/11/1 12/12/1

