# Tiled2Unity generated file. Do not modify by hand.
# Wavefront file for 'Temple_mesh_0328.obj'

# Vertices (Count = 48)
v 0 -819.2 0
v -102.4 -819.2 0
v -102.4 -716.8 0
v 0 -716.8 0
v -102.4 -819.2 0
v -204.8 -819.2 0
v -204.8 -716.8 0
v -102.4 -716.8 0
v -204.8 -819.2 0
v -307.2 -819.2 0
v -307.2 -716.8 0
v -204.8 -716.8 0
v 0 -921.6 0
v -102.4 -921.6 0
v -102.4 -819.2 0
v 0 -819.2 0
v -102.4 -921.6 0
v -204.8 -921.6 0
v -204.8 -819.2 0
v -102.4 -819.2 0
v -204.8 -921.6 0
v -307.2 -921.6 0
v -307.2 -819.2 0
v -204.8 -819.2 0
v 0 -1024 0
v -102.4 -1024 0
v -102.4 -921.6 0
v 0 -921.6 0
v -102.4 -1024 0
v -204.8 -1024 0
v -204.8 -921.6 0
v -102.4 -921.6 0
v -204.8 -1024 0
v -307.2 -1024 0
v -307.2 -921.6 0
v -204.8 -921.6 0
v 0 -1126.4 0
v -102.4 -1126.4 0
v -102.4 -1024 0
v 0 -1024 0
v -102.4 -1126.4 0
v -204.8 -1126.4 0
v -204.8 -1024 0
v -102.4 -1024 0
v -204.8 -1126.4 0
v -307.2 -1126.4 0
v -307.2 -1024 0
v -204.8 -1024 0

# Texture cooridinates (Count = 16)
vt 0.78125 0.375
vt 0.8125 0.375
vt 0.8125 0.40625
vt 0.78125 0.40625
vt 0.84375 0.375
vt 0.84375 0.40625
vt 0.875 0.375
vt 0.875 0.40625
vt 0.78125 0.34375
vt 0.8125 0.34375
vt 0.84375 0.34375
vt 0.875 0.34375
vt 0.78125 0.3125
vt 0.8125 0.3125
vt 0.84375 0.3125
vt 0.875 0.3125

# Normal
vn 0 0 -1

# Mesh description
g Temple_mesh_0328

# Faces
f 1/1/1 2/2/1 3/3/1 4/4/1
f 5/2/1 6/5/1 7/6/1 8/3/1
f 9/5/1 10/7/1 11/8/1 12/6/1
f 13/9/1 14/10/1 15/2/1 16/1/1
f 17/10/1 18/11/1 19/5/1 20/2/1
f 21/11/1 22/12/1 23/7/1 24/5/1
f 25/13/1 26/14/1 27/10/1 28/9/1
f 29/14/1 30/15/1 31/11/1 32/10/1
f 33/15/1 34/16/1 35/12/1 36/11/1
f 37/13/1 38/14/1 39/10/1 40/9/1
f 41/14/1 42/15/1 43/11/1 44/10/1
f 45/15/1 46/16/1 47/12/1 48/11/1

