# Tiled2Unity generated file. Do not modify by hand.
# Wavefront file for 'Temple_mesh_0062.obj'

# Vertices (Count = 664)
v 0 -204.8 0
v -102.4 -204.8 0
v -102.4 -102.4 0
v 0 -102.4 0
v -102.4 -204.8 0
v -204.8 -204.8 0
v -204.8 -102.4 0
v -102.4 -102.4 0
v -204.8 -204.8 0
v -307.2 -204.8 0
v -307.2 -102.4 0
v -204.8 -102.4 0
v -307.2 -204.8 0
v -409.6 -204.8 0
v -409.6 -102.4 0
v -307.2 -102.4 0
v -409.6 -204.8 0
v -512 -204.8 0
v -512 -102.4 0
v -409.6 -102.4 0
v -512 -204.8 0
v -614.4 -204.8 0
v -614.4 -102.4 0
v -512 -102.4 0
v -614.4 -204.8 0
v -716.8 -204.8 0
v -716.8 -102.4 0
v -614.4 -102.4 0
v -716.8 -204.8 0
v -819.2 -204.8 0
v -819.2 -102.4 0
v -716.8 -102.4 0
v -819.2 -204.8 0
v -921.6 -204.8 0
v -921.6 -102.4 0
v -819.2 -102.4 0
v -921.6 -204.8 0
v -1024 -204.8 0
v -1024 -102.4 0
v -921.6 -102.4 0
v -1024 -204.8 0
v -1126.4 -204.8 0
v -1126.4 -102.4 0
v -1024 -102.4 0
v -1126.4 -204.8 0
v -1228.8 -204.8 0
v -1228.8 -102.4 0
v -1126.4 -102.4 0
v 0 -307.2 0
v -102.4 -307.2 0
v -102.4 -204.8 0
v 0 -204.8 0
v -102.4 -307.2 0
v -204.8 -307.2 0
v -204.8 -204.8 0
v -102.4 -204.8 0
v -204.8 -307.2 0
v -307.2 -307.2 0
v -307.2 -204.8 0
v -204.8 -204.8 0
v -307.2 -307.2 0
v -409.6 -307.2 0
v -409.6 -204.8 0
v -307.2 -204.8 0
v -409.6 -307.2 0
v -512 -307.2 0
v -512 -204.8 0
v -409.6 -204.8 0
v -512 -307.2 0
v -614.4 -307.2 0
v -614.4 -204.8 0
v -512 -204.8 0
v -614.4 -307.2 0
v -716.8 -307.2 0
v -716.8 -204.8 0
v -614.4 -204.8 0
v -716.8 -307.2 0
v -819.2 -307.2 0
v -819.2 -204.8 0
v -716.8 -204.8 0
v -819.2 -307.2 0
v -921.6 -307.2 0
v -921.6 -204.8 0
v -819.2 -204.8 0
v -921.6 -307.2 0
v -1024 -307.2 0
v -1024 -204.8 0
v -921.6 -204.8 0
v -1024 -307.2 0
v -1126.4 -307.2 0
v -1126.4 -204.8 0
v -1024 -204.8 0
v 0 -409.6 0
v -102.4 -409.6 0
v -102.4 -307.2 0
v 0 -307.2 0
v -102.4 -409.6 0
v -204.8 -409.6 0
v -204.8 -307.2 0
v -102.4 -307.2 0
v -204.8 -409.6 0
v -307.2 -409.6 0
v -307.2 -307.2 0
v -204.8 -307.2 0
v -307.2 -409.6 0
v -409.6 -409.6 0
v -409.6 -307.2 0
v -307.2 -307.2 0
v -409.6 -409.6 0
v -512 -409.6 0
v -512 -307.2 0
v -409.6 -307.2 0
v -512 -409.6 0
v -614.4 -409.6 0
v -614.4 -307.2 0
v -512 -307.2 0
v -614.4 -409.6 0
v -716.8 -409.6 0
v -716.8 -307.2 0
v -614.4 -307.2 0
v -716.8 -409.6 0
v -819.2 -409.6 0
v -819.2 -307.2 0
v -716.8 -307.2 0
v -819.2 -409.6 0
v -921.6 -409.6 0
v -921.6 -307.2 0
v -819.2 -307.2 0
v -921.6 -409.6 0
v -1024 -409.6 0
v -1024 -307.2 0
v -921.6 -307.2 0
v -1024 -409.6 0
v -1126.4 -409.6 0
v -1126.4 -307.2 0
v -1024 -307.2 0
v 0 -512 0
v -102.4 -512 0
v -102.4 -409.6 0
v 0 -409.6 0
v -102.4 -512 0
v -204.8 -512 0
v -204.8 -409.6 0
v -102.4 -409.6 0
v -204.8 -512 0
v -307.2 -512 0
v -307.2 -409.6 0
v -204.8 -409.6 0
v -307.2 -512 0
v -409.6 -512 0
v -409.6 -409.6 0
v -307.2 -409.6 0
v -409.6 -512 0
v -512 -512 0
v -512 -409.6 0
v -409.6 -409.6 0
v -512 -512 0
v -614.4 -512 0
v -614.4 -409.6 0
v -512 -409.6 0
v -614.4 -512 0
v -716.8 -512 0
v -716.8 -409.6 0
v -614.4 -409.6 0
v -716.8 -512 0
v -819.2 -512 0
v -819.2 -409.6 0
v -716.8 -409.6 0
v -819.2 -512 0
v -921.6 -512 0
v -921.6 -409.6 0
v -819.2 -409.6 0
v -921.6 -512 0
v -1024 -512 0
v -1024 -409.6 0
v -921.6 -409.6 0
v -1024 -512 0
v -1126.4 -512 0
v -1126.4 -409.6 0
v -1024 -409.6 0
v 0 -614.4 0
v -102.4 -614.4 0
v -102.4 -512 0
v 0 -512 0
v -102.4 -614.4 0
v -204.8 -614.4 0
v -204.8 -512 0
v -102.4 -512 0
v -204.8 -614.4 0
v -307.2 -614.4 0
v -307.2 -512 0
v -204.8 -512 0
v -307.2 -614.4 0
v -409.6 -614.4 0
v -409.6 -512 0
v -307.2 -512 0
v -409.6 -614.4 0
v -512 -614.4 0
v -512 -512 0
v -409.6 -512 0
v -512 -614.4 0
v -614.4 -614.4 0
v -614.4 -512 0
v -512 -512 0
v -614.4 -614.4 0
v -716.8 -614.4 0
v -716.8 -512 0
v -614.4 -512 0
v -716.8 -614.4 0
v -819.2 -614.4 0
v -819.2 -512 0
v -716.8 -512 0
v -819.2 -614.4 0
v -921.6 -614.4 0
v -921.6 -512 0
v -819.2 -512 0
v -921.6 -614.4 0
v -1024 -614.4 0
v -1024 -512 0
v -921.6 -512 0
v -1024 -614.4 0
v -1126.4 -614.4 0
v -1126.4 -512 0
v -1024 -512 0
v 0 -716.8 0
v -102.4 -716.8 0
v -102.4 -614.4 0
v 0 -614.4 0
v -102.4 -716.8 0
v -204.8 -716.8 0
v -204.8 -614.4 0
v -102.4 -614.4 0
v -204.8 -716.8 0
v -307.2 -716.8 0
v -307.2 -614.4 0
v -204.8 -614.4 0
v -307.2 -716.8 0
v -409.6 -716.8 0
v -409.6 -614.4 0
v -307.2 -614.4 0
v -409.6 -716.8 0
v -512 -716.8 0
v -512 -614.4 0
v -409.6 -614.4 0
v -512 -716.8 0
v -614.4 -716.8 0
v -614.4 -614.4 0
v -512 -614.4 0
v -614.4 -716.8 0
v -716.8 -716.8 0
v -716.8 -614.4 0
v -614.4 -614.4 0
v -716.8 -716.8 0
v -819.2 -716.8 0
v -819.2 -614.4 0
v -716.8 -614.4 0
v -819.2 -716.8 0
v -921.6 -716.8 0
v -921.6 -614.4 0
v -819.2 -614.4 0
v -921.6 -716.8 0
v -1024 -716.8 0
v -1024 -614.4 0
v -921.6 -614.4 0
v -1024 -716.8 0
v -1126.4 -716.8 0
v -1126.4 -614.4 0
v -1024 -614.4 0
v 0 -819.2 0
v -102.4 -819.2 0
v -102.4 -716.8 0
v 0 -716.8 0
v -102.4 -819.2 0
v -204.8 -819.2 0
v -204.8 -716.8 0
v -102.4 -716.8 0
v -204.8 -819.2 0
v -307.2 -819.2 0
v -307.2 -716.8 0
v -204.8 -716.8 0
v -307.2 -819.2 0
v -409.6 -819.2 0
v -409.6 -716.8 0
v -307.2 -716.8 0
v -409.6 -819.2 0
v -512 -819.2 0
v -512 -716.8 0
v -409.6 -716.8 0
v -512 -819.2 0
v -614.4 -819.2 0
v -614.4 -716.8 0
v -512 -716.8 0
v -614.4 -819.2 0
v -716.8 -819.2 0
v -716.8 -716.8 0
v -614.4 -716.8 0
v -716.8 -819.2 0
v -819.2 -819.2 0
v -819.2 -716.8 0
v -716.8 -716.8 0
v -819.2 -819.2 0
v -921.6 -819.2 0
v -921.6 -716.8 0
v -819.2 -716.8 0
v -921.6 -819.2 0
v -1024 -819.2 0
v -1024 -716.8 0
v -921.6 -716.8 0
v -1024 -819.2 0
v -1126.4 -819.2 0
v -1126.4 -716.8 0
v -1024 -716.8 0
v 0 -921.6 0
v -102.4 -921.6 0
v -102.4 -819.2 0
v 0 -819.2 0
v -102.4 -921.6 0
v -204.8 -921.6 0
v -204.8 -819.2 0
v -102.4 -819.2 0
v -204.8 -921.6 0
v -307.2 -921.6 0
v -307.2 -819.2 0
v -204.8 -819.2 0
v -307.2 -921.6 0
v -409.6 -921.6 0
v -409.6 -819.2 0
v -307.2 -819.2 0
v -409.6 -921.6 0
v -512 -921.6 0
v -512 -819.2 0
v -409.6 -819.2 0
v -512 -921.6 0
v -614.4 -921.6 0
v -614.4 -819.2 0
v -512 -819.2 0
v -614.4 -921.6 0
v -716.8 -921.6 0
v -716.8 -819.2 0
v -614.4 -819.2 0
v -716.8 -921.6 0
v -819.2 -921.6 0
v -819.2 -819.2 0
v -716.8 -819.2 0
v -819.2 -921.6 0
v -921.6 -921.6 0
v -921.6 -819.2 0
v -819.2 -819.2 0
v -921.6 -921.6 0
v -1024 -921.6 0
v -1024 -819.2 0
v -921.6 -819.2 0
v -1024 -921.6 0
v -1126.4 -921.6 0
v -1126.4 -819.2 0
v -1024 -819.2 0
v 0 -1024 0
v -102.4 -1024 0
v -102.4 -921.6 0
v 0 -921.6 0
v -102.4 -1024 0
v -204.8 -1024 0
v -204.8 -921.6 0
v -102.4 -921.6 0
v -204.8 -1024 0
v -307.2 -1024 0
v -307.2 -921.6 0
v -204.8 -921.6 0
v -307.2 -1024 0
v -409.6 -1024 0
v -409.6 -921.6 0
v -307.2 -921.6 0
v -409.6 -1024 0
v -512 -1024 0
v -512 -921.6 0
v -409.6 -921.6 0
v -512 -1024 0
v -614.4 -1024 0
v -614.4 -921.6 0
v -512 -921.6 0
v -614.4 -1024 0
v -716.8 -1024 0
v -716.8 -921.6 0
v -614.4 -921.6 0
v -716.8 -1024 0
v -819.2 -1024 0
v -819.2 -921.6 0
v -716.8 -921.6 0
v -819.2 -1024 0
v -921.6 -1024 0
v -921.6 -921.6 0
v -819.2 -921.6 0
v -921.6 -1024 0
v -1024 -1024 0
v -1024 -921.6 0
v -921.6 -921.6 0
v -1024 -1024 0
v -1126.4 -1024 0
v -1126.4 -921.6 0
v -1024 -921.6 0
v 0 -1126.4 0
v -102.4 -1126.4 0
v -102.4 -1024 0
v 0 -1024 0
v -102.4 -1126.4 0
v -204.8 -1126.4 0
v -204.8 -1024 0
v -102.4 -1024 0
v -204.8 -1126.4 0
v -307.2 -1126.4 0
v -307.2 -1024 0
v -204.8 -1024 0
v -307.2 -1126.4 0
v -409.6 -1126.4 0
v -409.6 -1024 0
v -307.2 -1024 0
v -409.6 -1126.4 0
v -512 -1126.4 0
v -512 -1024 0
v -409.6 -1024 0
v -512 -1126.4 0
v -614.4 -1126.4 0
v -614.4 -1024 0
v -512 -1024 0
v -614.4 -1126.4 0
v -716.8 -1126.4 0
v -716.8 -1024 0
v -614.4 -1024 0
v -716.8 -1126.4 0
v -819.2 -1126.4 0
v -819.2 -1024 0
v -716.8 -1024 0
v -819.2 -1126.4 0
v -921.6 -1126.4 0
v -921.6 -1024 0
v -819.2 -1024 0
v -921.6 -1126.4 0
v -1024 -1126.4 0
v -1024 -1024 0
v -921.6 -1024 0
v -1024 -1126.4 0
v -1126.4 -1126.4 0
v -1126.4 -1024 0
v -1024 -1024 0
v 0 -1228.8 0
v -102.4 -1228.8 0
v -102.4 -1126.4 0
v 0 -1126.4 0
v -102.4 -1228.8 0
v -204.8 -1228.8 0
v -204.8 -1126.4 0
v -102.4 -1126.4 0
v -204.8 -1228.8 0
v -307.2 -1228.8 0
v -307.2 -1126.4 0
v -204.8 -1126.4 0
v -307.2 -1228.8 0
v -409.6 -1228.8 0
v -409.6 -1126.4 0
v -307.2 -1126.4 0
v -409.6 -1228.8 0
v -512 -1228.8 0
v -512 -1126.4 0
v -409.6 -1126.4 0
v -512 -1228.8 0
v -614.4 -1228.8 0
v -614.4 -1126.4 0
v -512 -1126.4 0
v -614.4 -1228.8 0
v -716.8 -1228.8 0
v -716.8 -1126.4 0
v -614.4 -1126.4 0
v -716.8 -1228.8 0
v -819.2 -1228.8 0
v -819.2 -1126.4 0
v -716.8 -1126.4 0
v -819.2 -1228.8 0
v -921.6 -1228.8 0
v -921.6 -1126.4 0
v -819.2 -1126.4 0
v -921.6 -1228.8 0
v -1024 -1228.8 0
v -1024 -1126.4 0
v -921.6 -1126.4 0
v -1024 -1228.8 0
v -1126.4 -1228.8 0
v -1126.4 -1126.4 0
v -1024 -1126.4 0
v 0 -1331.2 0
v -102.4 -1331.2 0
v -102.4 -1228.8 0
v 0 -1228.8 0
v -102.4 -1331.2 0
v -204.8 -1331.2 0
v -204.8 -1228.8 0
v -102.4 -1228.8 0
v -204.8 -1331.2 0
v -307.2 -1331.2 0
v -307.2 -1228.8 0
v -204.8 -1228.8 0
v -307.2 -1331.2 0
v -409.6 -1331.2 0
v -409.6 -1228.8 0
v -307.2 -1228.8 0
v -409.6 -1331.2 0
v -512 -1331.2 0
v -512 -1228.8 0
v -409.6 -1228.8 0
v -512 -1331.2 0
v -614.4 -1331.2 0
v -614.4 -1228.8 0
v -512 -1228.8 0
v -614.4 -1331.2 0
v -716.8 -1331.2 0
v -716.8 -1228.8 0
v -614.4 -1228.8 0
v -716.8 -1331.2 0
v -819.2 -1331.2 0
v -819.2 -1228.8 0
v -716.8 -1228.8 0
v -819.2 -1331.2 0
v -921.6 -1331.2 0
v -921.6 -1228.8 0
v -819.2 -1228.8 0
v -921.6 -1331.2 0
v -1024 -1331.2 0
v -1024 -1228.8 0
v -921.6 -1228.8 0
v -1024 -1331.2 0
v -1126.4 -1331.2 0
v -1126.4 -1228.8 0
v -1024 -1228.8 0
v 0 -1433.6 0
v -102.4 -1433.6 0
v -102.4 -1331.2 0
v 0 -1331.2 0
v -102.4 -1433.6 0
v -204.8 -1433.6 0
v -204.8 -1331.2 0
v -102.4 -1331.2 0
v -204.8 -1433.6 0
v -307.2 -1433.6 0
v -307.2 -1331.2 0
v -204.8 -1331.2 0
v -307.2 -1433.6 0
v -409.6 -1433.6 0
v -409.6 -1331.2 0
v -307.2 -1331.2 0
v -409.6 -1433.6 0
v -512 -1433.6 0
v -512 -1331.2 0
v -409.6 -1331.2 0
v -512 -1433.6 0
v -614.4 -1433.6 0
v -614.4 -1331.2 0
v -512 -1331.2 0
v -614.4 -1433.6 0
v -716.8 -1433.6 0
v -716.8 -1331.2 0
v -614.4 -1331.2 0
v -716.8 -1433.6 0
v -819.2 -1433.6 0
v -819.2 -1331.2 0
v -716.8 -1331.2 0
v -819.2 -1433.6 0
v -921.6 -1433.6 0
v -921.6 -1331.2 0
v -819.2 -1331.2 0
v -921.6 -1433.6 0
v -1024 -1433.6 0
v -1024 -1331.2 0
v -921.6 -1331.2 0
v -1024 -1433.6 0
v -1126.4 -1433.6 0
v -1126.4 -1331.2 0
v -1024 -1331.2 0
v 0 -1536 0
v -102.4 -1536 0
v -102.4 -1433.6 0
v 0 -1433.6 0
v -102.4 -1536 0
v -204.8 -1536 0
v -204.8 -1433.6 0
v -102.4 -1433.6 0
v -204.8 -1536 0
v -307.2 -1536 0
v -307.2 -1433.6 0
v -204.8 -1433.6 0
v -307.2 -1536 0
v -409.6 -1536 0
v -409.6 -1433.6 0
v -307.2 -1433.6 0
v -409.6 -1536 0
v -512 -1536 0
v -512 -1433.6 0
v -409.6 -1433.6 0
v -512 -1536 0
v -614.4 -1536 0
v -614.4 -1433.6 0
v -512 -1433.6 0
v -614.4 -1536 0
v -716.8 -1536 0
v -716.8 -1433.6 0
v -614.4 -1433.6 0
v -716.8 -1536 0
v -819.2 -1536 0
v -819.2 -1433.6 0
v -716.8 -1433.6 0
v -819.2 -1536 0
v -921.6 -1536 0
v -921.6 -1433.6 0
v -819.2 -1433.6 0
v -921.6 -1536 0
v -1024 -1536 0
v -1024 -1433.6 0
v -921.6 -1433.6 0
v -1024 -1536 0
v -1126.4 -1536 0
v -1126.4 -1433.6 0
v -1024 -1433.6 0
v 0 -1638.4 0
v -102.4 -1638.4 0
v -102.4 -1536 0
v 0 -1536 0
v -102.4 -1638.4 0
v -204.8 -1638.4 0
v -204.8 -1536 0
v -102.4 -1536 0
v -204.8 -1638.4 0
v -307.2 -1638.4 0
v -307.2 -1536 0
v -204.8 -1536 0
v -307.2 -1638.4 0
v -409.6 -1638.4 0
v -409.6 -1536 0
v -307.2 -1536 0
v -409.6 -1638.4 0
v -512 -1638.4 0
v -512 -1536 0
v -409.6 -1536 0
v -512 -1638.4 0
v -614.4 -1638.4 0
v -614.4 -1536 0
v -512 -1536 0
v -614.4 -1638.4 0
v -716.8 -1638.4 0
v -716.8 -1536 0
v -614.4 -1536 0
v -716.8 -1638.4 0
v -819.2 -1638.4 0
v -819.2 -1536 0
v -716.8 -1536 0
v -819.2 -1638.4 0
v -921.6 -1638.4 0
v -921.6 -1536 0
v -819.2 -1536 0
v -921.6 -1638.4 0
v -1024 -1638.4 0
v -1024 -1536 0
v -921.6 -1536 0
v -1024 -1638.4 0
v -1126.4 -1638.4 0
v -1126.4 -1536 0
v -1024 -1536 0

# Texture cooridinates (Count = 6)
vt 0.6875 0.71875
vt 0.71875 0.71875
vt 0.71875 0.75
vt 0.6875 0.75
vt 0.6875 0.6875
vt 0.71875 0.6875

# Normal
vn 0 0 -1

# Mesh description
g Temple_mesh_0062

# Faces
f 1/1/1 2/2/1 3/3/1 4/4/1
f 5/1/1 6/2/1 7/3/1 8/4/1
f 9/1/1 10/2/1 11/3/1 12/4/1
f 13/1/1 14/2/1 15/3/1 16/4/1
f 17/1/1 18/2/1 19/3/1 20/4/1
f 21/1/1 22/2/1 23/3/1 24/4/1
f 25/1/1 26/2/1 27/3/1 28/4/1
f 29/1/1 30/2/1 31/3/1 32/4/1
f 33/1/1 34/2/1 35/3/1 36/4/1
f 37/1/1 38/2/1 39/3/1 40/4/1
f 41/1/1 42/2/1 43/3/1 44/4/1
f 45/1/1 46/2/1 47/3/1 48/4/1
f 49/5/1 50/6/1 51/2/1 52/1/1
f 53/5/1 54/6/1 55/2/1 56/1/1
f 57/5/1 58/6/1 59/2/1 60/1/1
f 61/5/1 62/6/1 63/2/1 64/1/1
f 65/5/1 66/6/1 67/2/1 68/1/1
f 69/5/1 70/6/1 71/2/1 72/1/1
f 73/5/1 74/6/1 75/2/1 76/1/1
f 77/5/1 78/6/1 79/2/1 80/1/1
f 81/5/1 82/6/1 83/2/1 84/1/1
f 85/5/1 86/6/1 87/2/1 88/1/1
f 89/5/1 90/6/1 91/2/1 92/1/1
f 93/5/1 94/6/1 95/2/1 96/1/1
f 97/5/1 98/6/1 99/2/1 100/1/1
f 101/5/1 102/6/1 103/2/1 104/1/1
f 105/5/1 106/6/1 107/2/1 108/1/1
f 109/5/1 110/6/1 111/2/1 112/1/1
f 113/5/1 114/6/1 115/2/1 116/1/1
f 117/5/1 118/6/1 119/2/1 120/1/1
f 121/5/1 122/6/1 123/2/1 124/1/1
f 125/5/1 126/6/1 127/2/1 128/1/1
f 129/5/1 130/6/1 131/2/1 132/1/1
f 133/5/1 134/6/1 135/2/1 136/1/1
f 137/5/1 138/6/1 139/2/1 140/1/1
f 141/5/1 142/6/1 143/2/1 144/1/1
f 145/5/1 146/6/1 147/2/1 148/1/1
f 149/5/1 150/6/1 151/2/1 152/1/1
f 153/5/1 154/6/1 155/2/1 156/1/1
f 157/5/1 158/6/1 159/2/1 160/1/1
f 161/5/1 162/6/1 163/2/1 164/1/1
f 165/5/1 166/6/1 167/2/1 168/1/1
f 169/5/1 170/6/1 171/2/1 172/1/1
f 173/5/1 174/6/1 175/2/1 176/1/1
f 177/5/1 178/6/1 179/2/1 180/1/1
f 181/5/1 182/6/1 183/2/1 184/1/1
f 185/5/1 186/6/1 187/2/1 188/1/1
f 189/5/1 190/6/1 191/2/1 192/1/1
f 193/5/1 194/6/1 195/2/1 196/1/1
f 197/5/1 198/6/1 199/2/1 200/1/1
f 201/5/1 202/6/1 203/2/1 204/1/1
f 205/5/1 206/6/1 207/2/1 208/1/1
f 209/5/1 210/6/1 211/2/1 212/1/1
f 213/5/1 214/6/1 215/2/1 216/1/1
f 217/5/1 218/6/1 219/2/1 220/1/1
f 221/5/1 222/6/1 223/2/1 224/1/1
f 225/5/1 226/6/1 227/2/1 228/1/1
f 229/5/1 230/6/1 231/2/1 232/1/1
f 233/5/1 234/6/1 235/2/1 236/1/1
f 237/5/1 238/6/1 239/2/1 240/1/1
f 241/5/1 242/6/1 243/2/1 244/1/1
f 245/5/1 246/6/1 247/2/1 248/1/1
f 249/5/1 250/6/1 251/2/1 252/1/1
f 253/5/1 254/6/1 255/2/1 256/1/1
f 257/5/1 258/6/1 259/2/1 260/1/1
f 261/5/1 262/6/1 263/2/1 264/1/1
f 265/5/1 266/6/1 267/2/1 268/1/1
f 269/5/1 270/6/1 271/2/1 272/1/1
f 273/5/1 274/6/1 275/2/1 276/1/1
f 277/5/1 278/6/1 279/2/1 280/1/1
f 281/5/1 282/6/1 283/2/1 284/1/1
f 285/5/1 286/6/1 287/2/1 288/1/1
f 289/5/1 290/6/1 291/2/1 292/1/1
f 293/5/1 294/6/1 295/2/1 296/1/1
f 297/5/1 298/6/1 299/2/1 300/1/1
f 301/5/1 302/6/1 303/2/1 304/1/1
f 305/5/1 306/6/1 307/2/1 308/1/1
f 309/5/1 310/6/1 311/2/1 312/1/1
f 313/5/1 314/6/1 315/2/1 316/1/1
f 317/5/1 318/6/1 319/2/1 320/1/1
f 321/5/1 322/6/1 323/2/1 324/1/1
f 325/5/1 326/6/1 327/2/1 328/1/1
f 329/5/1 330/6/1 331/2/1 332/1/1
f 333/5/1 334/6/1 335/2/1 336/1/1
f 337/5/1 338/6/1 339/2/1 340/1/1
f 341/5/1 342/6/1 343/2/1 344/1/1
f 345/5/1 346/6/1 347/2/1 348/1/1
f 349/5/1 350/6/1 351/2/1 352/1/1
f 353/5/1 354/6/1 355/2/1 356/1/1
f 357/5/1 358/6/1 359/2/1 360/1/1
f 361/5/1 362/6/1 363/2/1 364/1/1
f 365/5/1 366/6/1 367/2/1 368/1/1
f 369/5/1 370/6/1 371/2/1 372/1/1
f 373/5/1 374/6/1 375/2/1 376/1/1
f 377/5/1 378/6/1 379/2/1 380/1/1
f 381/5/1 382/6/1 383/2/1 384/1/1
f 385/5/1 386/6/1 387/2/1 388/1/1
f 389/5/1 390/6/1 391/2/1 392/1/1
f 393/5/1 394/6/1 395/2/1 396/1/1
f 397/5/1 398/6/1 399/2/1 400/1/1
f 401/5/1 402/6/1 403/2/1 404/1/1
f 405/5/1 406/6/1 407/2/1 408/1/1
f 409/5/1 410/6/1 411/2/1 412/1/1
f 413/5/1 414/6/1 415/2/1 416/1/1
f 417/5/1 418/6/1 419/2/1 420/1/1
f 421/5/1 422/6/1 423/2/1 424/1/1
f 425/5/1 426/6/1 427/2/1 428/1/1
f 429/5/1 430/6/1 431/2/1 432/1/1
f 433/5/1 434/6/1 435/2/1 436/1/1
f 437/5/1 438/6/1 439/2/1 440/1/1
f 441/5/1 442/6/1 443/2/1 444/1/1
f 445/5/1 446/6/1 447/2/1 448/1/1
f 449/5/1 450/6/1 451/2/1 452/1/1
f 453/5/1 454/6/1 455/2/1 456/1/1
f 457/5/1 458/6/1 459/2/1 460/1/1
f 461/5/1 462/6/1 463/2/1 464/1/1
f 465/5/1 466/6/1 467/2/1 468/1/1
f 469/5/1 470/6/1 471/2/1 472/1/1
f 473/5/1 474/6/1 475/2/1 476/1/1
f 477/5/1 478/6/1 479/2/1 480/1/1
f 481/5/1 482/6/1 483/2/1 484/1/1
f 485/5/1 486/6/1 487/2/1 488/1/1
f 489/5/1 490/6/1 491/2/1 492/1/1
f 493/5/1 494/6/1 495/2/1 496/1/1
f 497/5/1 498/6/1 499/2/1 500/1/1
f 501/5/1 502/6/1 503/2/1 504/1/1
f 505/5/1 506/6/1 507/2/1 508/1/1
f 509/5/1 510/6/1 511/2/1 512/1/1
f 513/5/1 514/6/1 515/2/1 516/1/1
f 517/5/1 518/6/1 519/2/1 520/1/1
f 521/5/1 522/6/1 523/2/1 524/1/1
f 525/5/1 526/6/1 527/2/1 528/1/1
f 529/5/1 530/6/1 531/2/1 532/1/1
f 533/5/1 534/6/1 535/2/1 536/1/1
f 537/5/1 538/6/1 539/2/1 540/1/1
f 541/5/1 542/6/1 543/2/1 544/1/1
f 545/5/1 546/6/1 547/2/1 548/1/1
f 549/5/1 550/6/1 551/2/1 552/1/1
f 553/5/1 554/6/1 555/2/1 556/1/1
f 557/5/1 558/6/1 559/2/1 560/1/1
f 561/5/1 562/6/1 563/2/1 564/1/1
f 565/5/1 566/6/1 567/2/1 568/1/1
f 569/5/1 570/6/1 571/2/1 572/1/1
f 573/5/1 574/6/1 575/2/1 576/1/1
f 577/5/1 578/6/1 579/2/1 580/1/1
f 581/5/1 582/6/1 583/2/1 584/1/1
f 585/5/1 586/6/1 587/2/1 588/1/1
f 589/5/1 590/6/1 591/2/1 592/1/1
f 593/5/1 594/6/1 595/2/1 596/1/1
f 597/5/1 598/6/1 599/2/1 600/1/1
f 601/5/1 602/6/1 603/2/1 604/1/1
f 605/5/1 606/6/1 607/2/1 608/1/1
f 609/5/1 610/6/1 611/2/1 612/1/1
f 613/5/1 614/6/1 615/2/1 616/1/1
f 617/5/1 618/6/1 619/2/1 620/1/1
f 621/5/1 622/6/1 623/2/1 624/1/1
f 625/5/1 626/6/1 627/2/1 628/1/1
f 629/5/1 630/6/1 631/2/1 632/1/1
f 633/5/1 634/6/1 635/2/1 636/1/1
f 637/5/1 638/6/1 639/2/1 640/1/1
f 641/5/1 642/6/1 643/2/1 644/1/1
f 645/5/1 646/6/1 647/2/1 648/1/1
f 649/5/1 650/6/1 651/2/1 652/1/1
f 653/5/1 654/6/1 655/2/1 656/1/1
f 657/5/1 658/6/1 659/2/1 660/1/1
f 661/5/1 662/6/1 663/2/1 664/1/1

