# Tiled2Unity generated file. Do not modify by hand.
# Wavefront file for 'Temple_mesh_0440.obj'

# Vertices (Count = 8)
v -1126.4 -614.4 0
v -1228.8 -614.4 0
v -1228.8 -512 0
v -1126.4 -512 0
v -1126.4 -1536 0
v -1228.8 -1536 0
v -1228.8 -1433.6 0
v -1126.4 -1433.6 0

# Texture cooridinates (Count = 6)
vt 0.3125 0.1875
vt 0.34375 0.1875
vt 0.34375 0.21875
vt 0.3125 0.21875
vt 0.28125 0.1875
vt 0.28125 0.21875

# Normal
vn 0 0 -1

# Mesh description
g Temple_mesh_0440

# Faces
f 1/1/1 2/2/1 3/3/1 4/4/1
f 5/5/1 6/1/1 7/4/1 8/6/1

