# Tiled2Unity generated file. Do not modify by hand.
# Wavefront file for 'Temple_mesh_0246.obj'

# Vertices (Count = 48)
v -614.4 -102.4 0
v -716.8 -102.4 0
v -716.8 0 0
v -614.4 0 0
v -716.8 -102.4 0
v -819.2 -102.4 0
v -819.2 0 0
v -716.8 0 0
v -819.2 -102.4 0
v -921.6 -102.4 0
v -921.6 0 0
v -819.2 0 0
v -1331.2 -716.8 0
v -1433.6 -716.8 0
v -1433.6 -614.4 0
v -1331.2 -614.4 0
v -1433.6 -716.8 0
v -1536 -716.8 0
v -1536 -614.4 0
v -1433.6 -614.4 0
v -1536 -716.8 0
v -1638.4 -716.8 0
v -1638.4 -614.4 0
v -1536 -614.4 0
v -1331.2 -819.2 0
v -1433.6 -819.2 0
v -1433.6 -716.8 0
v -1331.2 -716.8 0
v -1433.6 -819.2 0
v -1536 -819.2 0
v -1536 -716.8 0
v -1433.6 -716.8 0
v -1536 -819.2 0
v -1638.4 -819.2 0
v -1638.4 -716.8 0
v -1536 -716.8 0
v -1331.2 -921.6 0
v -1433.6 -921.6 0
v -1433.6 -819.2 0
v -1331.2 -819.2 0
v -1433.6 -921.6 0
v -1536 -921.6 0
v -1536 -819.2 0
v -1433.6 -819.2 0
v -1536 -921.6 0
v -1638.4 -921.6 0
v -1638.4 -819.2 0
v -1536 -819.2 0

# Texture cooridinates (Count = 16)
vt 0.78125 0.3125
vt 0.8125 0.3125
vt 0.8125 0.34375
vt 0.78125 0.34375
vt 0.84375 0.3125
vt 0.84375 0.34375
vt 0.875 0.3125
vt 0.875 0.34375
vt 0.78125 0.375
vt 0.8125 0.375
vt 0.8125 0.40625
vt 0.78125 0.40625
vt 0.84375 0.375
vt 0.84375 0.40625
vt 0.875 0.375
vt 0.875 0.40625

# Normal
vn 0 0 -1

# Mesh description
g Temple_mesh_0246

# Faces
f 1/1/1 2/2/1 3/3/1 4/4/1
f 5/2/1 6/5/1 7/6/1 8/3/1
f 9/5/1 10/7/1 11/8/1 12/6/1
f 13/9/1 14/10/1 15/11/1 16/12/1
f 17/10/1 18/13/1 19/14/1 20/11/1
f 21/13/1 22/15/1 23/16/1 24/14/1
f 25/4/1 26/3/1 27/10/1 28/9/1
f 29/3/1 30/6/1 31/13/1 32/10/1
f 33/6/1 34/8/1 35/15/1 36/13/1
f 37/1/1 38/2/1 39/3/1 40/4/1
f 41/2/1 42/5/1 43/6/1 44/3/1
f 45/5/1 46/7/1 47/8/1 48/6/1

