# Tiled2Unity generated file. Do not modify by hand.
# Wavefront file for 'Temple_mesh_0313.obj'

# Vertices (Count = 12)
v -1024 -1638.4 0
v -1126.4 -1638.4 0
v -1126.4 -1536 0
v -1024 -1536 0
v -1126.4 -1638.4 0
v -1228.8 -1638.4 0
v -1228.8 -1536 0
v -1126.4 -1536 0
v -1228.8 -1638.4 0
v -1331.2 -1638.4 0
v -1331.2 -1536 0
v -1228.8 -1536 0

# Texture cooridinates (Count = 8)
vt 0.78125 0.375
vt 0.8125 0.375
vt 0.8125 0.40625
vt 0.78125 0.40625
vt 0.84375 0.375
vt 0.84375 0.40625
vt 0.875 0.375
vt 0.875 0.40625

# Normal
vn 0 0 -1

# Mesh description
g Temple_mesh_0313

# Faces
f 1/1/1 2/2/1 3/3/1 4/4/1
f 5/2/1 6/5/1 7/6/1 8/3/1
f 9/5/1 10/7/1 11/8/1 12/6/1

